Urbanist-Regular.ufo
<glyph name="exclam" format="2">
	<advance width="368"/>
	<unicode hex="0021"/>
	<outline>
		<contour>
			<point x="99" y="420" type="line"/>
			<point x="230" y="420" type="line"/>
			<point x="230" y="1400" type="line"/>
			<point x="99" y="1400" type="line"/>
		</contour>
		<contour>
			<point x="165" y="-26" type="curve" smooth="yes"/>
			<point x="211" y="-26"/>
			<point x="248" y="11"/>
			<point x="248" y="60" type="curve" smooth="yes"/>
			<point x="248" y="106"/>
			<point x="211" y="143"/>
			<point x="165" y="143" type="curve" smooth="yes"/>
			<point x="117" y="143"/>
			<point x="80" y="106"/>
			<point x="80" y="60" type="curve" smooth="yes"/>
			<point x="80" y="11"/>
			<point x="117" y="-26"/>
		</contour>
	</outline>
</glyph>
<glyph name="numbersign" format="2">
	<advance width="1517.25"/>
	<unicode hex="0023"/>
	<outline>
		<contour>
			<point x="1398" y="924" type="line"/>
			<point x="1437" y="1069" type="line"/>
			<point x="1239" y="1069" type="line"/>
			<point x="1327" y="1400" type="line"/>
			<point x="1177" y="1400" type="line"/>
			<point x="1089" y="1069" type="line"/>
			<point x="627" y="1069" type="line"/>
			<point x="715" y="1400" type="line"/>
			<point x="565" y="1400" type="line"/>
			<point x="477" y="1069" type="line"/>
			<point x="277" y="1069" type="line"/>
			<point x="238" y="924" type="line"/>
			<point x="438" y="924" type="line"/>
			<point x="317" y="478" type="line"/>
			<point x="119" y="478" type="line"/>
			<point x="80" y="333" type="line"/>
			<point x="279" y="333" type="line"/>
			<point x="190" y="0" type="line"/>
			<point x="340" y="0" type="line"/>
			<point x="429" y="333" type="line"/>
			<point x="892" y="333" type="line"/>
			<point x="802" y="0" type="line"/>
			<point x="952" y="0" type="line"/>
			<point x="1042" y="333" type="line"/>
			<point x="1240" y="333" type="line"/>
			<point x="1279" y="478" type="line"/>
			<point x="1079" y="478" type="line"/>
			<point x="1200" y="924" type="line"/>
		</contour>
		<contour>
			<point x="929" y="478" type="line"/>
			<point x="467" y="478" type="line"/>
			<point x="588" y="924" type="line"/>
			<point x="1050" y="924" type="line"/>
		</contour>
	</outline>
</glyph>
<glyph name="percent" format="2">
	<advance width="1303.75"/>
	<unicode hex="0025"/>
	<outline>
		<contour>
			<point x="161" y="0" type="line"/>
			<point x="334" y="0" type="line"/>
			<point x="1142" y="1400" type="line"/>
			<point x="969" y="1400" type="line"/>
		</contour>
		<contour>
			<point x="325" y="848" type="curve" smooth="yes"/>
			<point x="458" y="848"/>
			<point x="570" y="955"/>
			<point x="570" y="1092" type="curve" smooth="yes"/>
			<point x="570" y="1228"/>
			<point x="460" y="1338"/>
			<point x="325" y="1338" type="curve" smooth="yes"/>
			<point x="192" y="1338"/>
			<point x="80" y="1230"/>
			<point x="80" y="1092" type="curve" smooth="yes"/>
			<point x="80" y="956"/>
			<point x="191" y="848"/>
		</contour>
		<contour>
			<point x="325" y="960" type="curve" smooth="yes"/>
			<point x="251" y="960"/>
			<point x="193" y="1019"/>
			<point x="193" y="1092" type="curve" smooth="yes"/>
			<point x="193" y="1166"/>
			<point x="251" y="1225"/>
			<point x="325" y="1225" type="curve" smooth="yes"/>
			<point x="399" y="1225"/>
			<point x="457" y="1166"/>
			<point x="457" y="1092" type="curve" smooth="yes"/>
			<point x="457" y="1019"/>
			<point x="399" y="960"/>
		</contour>
		<contour>
			<point x="979" y="62" type="curve" smooth="yes"/>
			<point x="1114" y="62"/>
			<point x="1224" y="173"/>
			<point x="1224" y="307" type="curve" smooth="yes"/>
			<point x="1224" y="440"/>
			<point x="1117" y="553"/>
			<point x="979" y="553" type="curve" smooth="yes"/>
			<point x="846" y="553"/>
			<point x="733" y="445"/>
			<point x="733" y="307" type="curve" smooth="yes"/>
			<point x="733" y="176"/>
			<point x="843" y="62"/>
		</contour>
		<contour>
			<point x="979" y="174" type="curve" smooth="yes"/>
			<point x="905" y="174"/>
			<point x="845" y="234"/>
			<point x="845" y="307" type="curve" smooth="yes"/>
			<point x="845" y="380"/>
			<point x="905" y="440"/>
			<point x="979" y="440" type="curve" smooth="yes"/>
			<point x="1051" y="440"/>
			<point x="1111" y="380"/>
			<point x="1111" y="307" type="curve" smooth="yes"/>
			<point x="1111" y="234"/>
			<point x="1051" y="174"/>
		</contour>
	</outline>
</glyph>
<glyph name="quotesingle" format="2">
	<advance width="257.5"/>
	<unicode hex="0027"/>
	<outline>
		<contour>
			<point x="73" y="878" type="line"/>
			<point x="185" y="878" type="line"/>
			<point x="185" y="1400" type="line"/>
			<point x="73" y="1400" type="line"/>
		</contour>
	</outline>
</glyph>
<glyph name="parenleft" format="2">
	<advance width="653.75"/>
	<unicode hex="0028"/>
	<outline>
		<contour>
			<point x="404" y="-112" type="curve"/>
			<point x="554" y="-112" type="line"/>
			<point x="388" y="69"/>
			<point x="278" y="330"/>
			<point x="270" y="644" type="curve" smooth="yes"/>
			<point x="278" y="927"/>
			<point x="388" y="1244"/>
			<point x="554" y="1400" type="curve"/>
			<point x="404" y="1400" type="line"/>
			<point x="220" y="1269"/>
			<point x="120" y="910"/>
			<point x="120" y="644" type="curve" smooth="yes"/>
			<point x="120" y="350"/>
			<point x="201" y="78"/>
		</contour>
	</outline>
</glyph>
<glyph name="comma" format="2">
	<advance width="412"/>
	<unicode hex="002C"/>
	<outline>
		<contour>
			<point x="80" y="-112" type="line"/>
			<point x="180" y="-112" type="line"/>
			<point x="292" y="226" type="line"/>
			<point x="142" y="226" type="line"/>
		</contour>
	</outline>
</glyph>
<glyph name="period" format="2">
	<advance width="368.75"/>
	<unicode hex="002E"/>
	<outline>
		<contour>
			<point x="164" y="-26" type="curve" smooth="yes"/>
			<point x="211" y="-26"/>
			<point x="249" y="11"/>
			<point x="249" y="59" type="curve" smooth="yes"/>
			<point x="249" y="105"/>
			<point x="211" y="143"/>
			<point x="164" y="143" type="curve" smooth="yes"/>
			<point x="117" y="143"/>
			<point x="80" y="105"/>
			<point x="80" y="59" type="curve" smooth="yes"/>
			<point x="80" y="11"/>
			<point x="117" y="-26"/>
		</contour>
	</outline>
</glyph>
<glyph name="two" format="2">
	<advance width="1094.5"/>
	<unicode hex="0032"/>
	<outline>
		<contour>
			<point x="80" y="0" type="line"/>
			<point x="975" y="0" type="line"/>
			<point x="975" y="150" type="line"/>
			<point x="348" y="150" type="line"/>
			<point x="621" y="406"/>
			<point x="955" y="757"/>
			<point x="955" y="994" type="curve" smooth="yes"/>
			<point x="955" y="1233"/>
			<point x="762" y="1426"/>
			<point x="526" y="1426" type="curve" smooth="yes"/>
			<point x="290" y="1426"/>
			<point x="95" y="1235"/>
			<point x="95" y="994" type="curve"/>
			<point x="245" y="994" type="line"/>
			<point x="245" y="1148"/>
			<point x="371" y="1276"/>
			<point x="526" y="1276" type="curve" smooth="yes"/>
			<point x="680" y="1276"/>
			<point x="805" y="1148"/>
			<point x="805" y="994" type="curve" smooth="yes"/>
			<point x="805" y="778"/>
			<point x="350" y="377"/>
			<point x="80" y="133" type="curve"/>
		</contour>
	</outline>
</glyph>
<glyph name="nine" format="2">
	<advance width="1057.5"/>
	<unicode hex="0039"/>
	<outline>
		<contour>
			<point x="346" y="0" type="line"/>
			<point x="519" y="0" type="line"/>
			<point x="928" y="712" type="line" smooth="yes"/>
			<point x="974" y="798"/>
			<point x="998" y="859"/>
			<point x="998" y="956" type="curve" smooth="yes"/>
			<point x="998" y="1215"/>
			<point x="785" y="1426"/>
			<point x="530" y="1426" type="curve" smooth="yes"/>
			<point x="270" y="1426"/>
			<point x="60" y="1214"/>
			<point x="60" y="956" type="curve" smooth="yes"/>
			<point x="60" y="641"/>
			<point x="371" y="429"/>
			<point x="652" y="528" type="curve"/>
		</contour>
		<contour>
			<point x="528" y="636" type="curve" smooth="yes"/>
			<point x="350" y="636"/>
			<point x="208" y="779"/>
			<point x="208" y="956" type="curve" smooth="yes"/>
			<point x="208" y="1124"/>
			<point x="342" y="1277"/>
			<point x="530" y="1277" type="curve" smooth="yes"/>
			<point x="699" y="1277"/>
			<point x="849" y="1138"/>
			<point x="849" y="956" type="curve" smooth="yes"/>
			<point x="849" y="787"/>
			<point x="713" y="636"/>
		</contour>
	</outline>
</glyph>
<glyph name="semicolon" format="2">
	<advance width="419.5"/>
	<unicode hex="003B"/>
	<outline>
		<contour>
			<point x="80" y="-112" type="line"/>
			<point x="180" y="-112" type="line"/>
			<point x="292" y="226" type="line"/>
			<point x="142" y="226" type="line"/>
		</contour>
		<contour>
			<point x="216" y="831" type="curve" smooth="yes"/>
			<point x="262" y="831"/>
			<point x="300" y="869"/>
			<point x="300" y="915" type="curve" smooth="yes"/>
			<point x="300" y="962"/>
			<point x="262" y="1000"/>
			<point x="216" y="1000" type="curve" smooth="yes"/>
			<point x="168" y="1000"/>
			<point x="131" y="962"/>
			<point x="131" y="915" type="curve" smooth="yes"/>
			<point x="131" y="869"/>
			<point x="168" y="831"/>
		</contour>
	</outline>
</glyph>
<glyph name="less" format="2">
	<advance width="1160"/>
	<unicode hex="003C"/>
	<outline>
		<contour>
			<point x="1080" y="192" type="line"/>
			<point x="1080" y="347" type="line"/>
			<point x="194" y="600" type="line"/>
			<point x="1080" y="852" type="line"/>
			<point x="1080" y="1009" type="line"/>
			<point x="80" y="723" type="line"/>
			<point x="80" y="476" type="line"/>
		</contour>
	</outline>
</glyph>
<glyph name="greater" format="2">
	<advance width="1160"/>
	<unicode hex="003E"/>
	<outline>
		<contour>
			<point x="80" y="196" type="line"/>
			<point x="1080" y="476" type="line"/>
			<point x="1080" y="723" type="line"/>
			<point x="80" y="1004" type="line"/>
			<point x="80" y="847" type="line"/>
			<point x="966" y="600" type="line"/>
			<point x="80" y="352" type="line"/>
		</contour>
	</outline>
</glyph>
<glyph name="question" format="2">
	<advance width="1012.75"/>
	<unicode hex="003F"/>
	<outline>
		<contour>
			<point x="425" y="476" type="curve"/>
			<point x="575" y="476" type="line"/>
			<point x="575" y="555"/>
			<point x="616" y="624"/>
			<point x="685" y="661" type="curve" smooth="yes"/>
			<point x="814" y="730"/>
			<point x="893" y="868"/>
			<point x="893" y="1021" type="curve" smooth="yes"/>
			<point x="893" y="1245"/>
			<point x="711" y="1427"/>
			<point x="486" y="1427" type="curve" smooth="yes"/>
			<point x="262" y="1427"/>
			<point x="80" y="1245"/>
			<point x="80" y="1021" type="curve"/>
			<point x="230" y="1021" type="line"/>
			<point x="230" y="1164"/>
			<point x="345" y="1277"/>
			<point x="486" y="1277" type="curve" smooth="yes"/>
			<point x="627" y="1277"/>
			<point x="743" y="1164"/>
			<point x="743" y="1021" type="curve" smooth="yes"/>
			<point x="743" y="923"/>
			<point x="694" y="836"/>
			<point x="614" y="793" type="curve" smooth="yes"/>
			<point x="496" y="729"/>
			<point x="425" y="610"/>
		</contour>
		<contour>
			<point x="497" y="-26" type="curve" smooth="yes"/>
			<point x="544" y="-26"/>
			<point x="581" y="13"/>
			<point x="581" y="60" type="curve" smooth="yes"/>
			<point x="581" y="106"/>
			<point x="544" y="143"/>
			<point x="497" y="143" type="curve" smooth="yes"/>
			<point x="451" y="143"/>
			<point x="413" y="106"/>
			<point x="413" y="60" type="curve" smooth="yes"/>
			<point x="413" y="13"/>
			<point x="451" y="-26"/>
		</contour>
	</outline>
</glyph>
<glyph name="C" format="2">
	<advance width="1398"/>
	<unicode hex="0043"/>
	<outline>
		<contour>
			<point x="748" y="-26" type="curve"/>
			<point x="974" y="-26"/>
			<point x="1172" y="87"/>
			<point x="1298" y="262" type="curve"/>
			<point x="1165" y="334" type="line"/>
			<point x="1070" y="209"/>
			<point x="918" y="124"/>
			<point x="748" y="124" type="curve"/>
			<point x="452" y="124"/>
			<point x="210" y="382"/>
			<point x="210" y="700" type="curve"/>
			<point x="210" y="1012"/>
			<point x="448" y="1276"/>
			<point x="748" y="1276" type="curve"/>
			<point x="911" y="1276"/>
			<point x="1068" y="1194"/>
			<point x="1165" y="1065" type="curve"/>
			<point x="1298" y="1137" type="line"/>
			<point x="1172" y="1312"/>
			<point x="974" y="1426"/>
			<point x="748" y="1426" type="curve"/>
			<point x="368" y="1426"/>
			<point x="60" y="1101"/>
			<point x="60" y="700" type="curve"/>
			<point x="60" y="299"/>
			<point x="368" y="-26"/>
		</contour>
	</outline>
</glyph>
<glyph name="D" format="2">
	<advance width="1342.75"/>
	<unicode hex="0044"/>
	<outline>
		<contour>
			<point x="120" y="0" type="line"/>
			<point x="583" y="0" type="line" smooth="yes"/>
			<point x="970" y="0"/>
			<point x="1283" y="314"/>
			<point x="1283" y="700" type="curve" smooth="yes"/>
			<point x="1283" y="1086"/>
			<point x="970" y="1400"/>
			<point x="583" y="1400" type="curve" smooth="yes"/>
			<point x="120" y="1400" type="line"/>
		</contour>
		<contour>
			<point x="270" y="150" type="line"/>
			<point x="270" y="1250" type="line"/>
			<point x="583" y="1250" type="line" smooth="yes"/>
			<point x="886" y="1250"/>
			<point x="1133" y="1004"/>
			<point x="1133" y="700" type="curve" smooth="yes"/>
			<point x="1133" y="396"/>
			<point x="886" y="150"/>
			<point x="583" y="150" type="curve" smooth="yes"/>
		</contour>
	</outline>
</glyph>
<glyph name="E" format="2">
	<advance width="1074.5"/>
	<unicode hex="0045"/>
	<outline>
		<contour>
			<point x="120" y="0" type="line"/>
			<point x="975" y="0" type="line"/>
			<point x="975" y="150" type="line"/>
			<point x="270" y="150" type="line"/>
			<point x="270" y="675" type="line"/>
			<point x="851" y="675" type="line"/>
			<point x="851" y="825" type="line"/>
			<point x="270" y="825" type="line"/>
			<point x="270" y="1250" type="line"/>
			<point x="975" y="1250" type="line"/>
			<point x="975" y="1400" type="line"/>
			<point x="120" y="1400" type="line"/>
		</contour>
	</outline>
</glyph>
<glyph name="F" format="2">
	<advance width="959.5"/>
	<unicode hex="0046"/>
	<outline>
		<contour>
			<point x="120" y="0" type="line"/>
			<point x="270" y="0" type="line"/>
			<point x="270" y="675" type="line"/>
			<point x="844" y="675" type="line"/>
			<point x="844" y="825" type="line"/>
			<point x="270" y="825" type="line"/>
			<point x="270" y="1250" type="line"/>
			<point x="940" y="1250" type="line"/>
			<point x="940" y="1400" type="line"/>
			<point x="120" y="1400" type="line"/>
		</contour>
	</outline>
</glyph>
<glyph name="G" format="2">
	<advance width="1496.375"/>
	<unicode hex="0047"/>
	<outline>
		<contour>
			<point x="749" y="-26" type="curve" smooth="yes"/>
			<point x="1123" y="-26"/>
			<point x="1429" y="291"/>
			<point x="1436" y="679" type="curve"/>
			<point x="895" y="679" type="line"/>
			<point x="895" y="544" type="line"/>
			<point x="1261" y="544" type="line"/>
			<point x="1201" y="303"/>
			<point x="993" y="124"/>
			<point x="751" y="124" type="curve" smooth="yes"/>
			<point x="452" y="124"/>
			<point x="210" y="383"/>
			<point x="210" y="699" type="curve" smooth="yes"/>
			<point x="210" y="1018"/>
			<point x="455" y="1276"/>
			<point x="750" y="1276" type="curve" smooth="yes"/>
			<point x="906" y="1276"/>
			<point x="1059" y="1202"/>
			<point x="1165" y="1065" type="curve"/>
			<point x="1299" y="1137" type="line"/>
			<point x="1164" y="1322"/>
			<point x="964" y="1425"/>
			<point x="752" y="1425" type="curve" smooth="yes"/>
			<point x="379" y="1425"/>
			<point x="60" y="1111"/>
			<point x="60" y="701" type="curve" smooth="yes"/>
			<point x="60" y="302"/>
			<point x="364" y="-26"/>
		</contour>
	</outline>
</glyph>
<glyph name="H" format="2">
	<advance width="1259.75"/>
	<unicode hex="0048"/>
	<outline>
		<contour>
			<point x="990" y="1400" type="line"/>
			<point x="990" y="825" type="line"/>
			<point x="270" y="825" type="line"/>
			<point x="270" y="1400" type="line"/>
			<point x="120" y="1400" type="line"/>
			<point x="120" y="0" type="line"/>
			<point x="270" y="0" type="line"/>
			<point x="270" y="675" type="line"/>
			<point x="990" y="675" type="line"/>
			<point x="990" y="0" type="line"/>
			<point x="1140" y="0" type="line"/>
			<point x="1140" y="1400" type="line"/>
		</contour>
	</outline>
</glyph>
<glyph name="J" format="2">
	<advance width="811.5"/>
	<unicode hex="004A"/>
	<outline>
		<contour>
			<point x="293" y="-26" type="curve" smooth="yes"/>
			<point x="513" y="-26"/>
			<point x="692" y="165"/>
			<point x="692" y="384" type="curve" smooth="yes"/>
			<point x="692" y="1400" type="line"/>
			<point x="542" y="1400" type="line"/>
			<point x="542" y="384" type="line" smooth="yes"/>
			<point x="542" y="247"/>
			<point x="430" y="124"/>
			<point x="293" y="124" type="curve" smooth="yes"/>
			<point x="231" y="124"/>
			<point x="177" y="147"/>
			<point x="136" y="182" type="curve"/>
			<point x="40" y="67" type="line"/>
			<point x="110" y="6"/>
			<point x="201" y="-26"/>
		</contour>
	</outline>
</glyph>
<glyph name="L" format="2">
	<advance width="1007.5"/>
	<unicode hex="004C"/>
	<outline>
		<contour>
			<point x="120" y="0" type="line"/>
			<point x="908" y="0" type="line"/>
			<point x="908" y="150" type="line"/>
			<point x="270" y="150" type="line"/>
			<point x="270" y="1400" type="line"/>
			<point x="120" y="1400" type="line"/>
		</contour>
	</outline>
</glyph>
<glyph name="O" format="2">
	<advance width="1540"/>
	<unicode hex="004F"/>
	<outline>
		<contour>
			<point x="770" y="-26" type="curve" smooth="yes"/>
			<point x="1150" y="-26"/>
			<point x="1460" y="300"/>
			<point x="1460" y="700" type="curve" smooth="yes"/>
			<point x="1460" y="1100"/>
			<point x="1150" y="1426"/>
			<point x="770" y="1426" type="curve" smooth="yes"/>
			<point x="390" y="1426"/>
			<point x="80" y="1100"/>
			<point x="80" y="700" type="curve" smooth="yes"/>
			<point x="80" y="300"/>
			<point x="390" y="-26"/>
		</contour>
		<contour>
			<point x="770" y="124" type="curve" smooth="yes"/>
			<point x="472" y="124"/>
			<point x="230" y="384"/>
			<point x="230" y="700" type="curve" smooth="yes"/>
			<point x="230" y="1013"/>
			<point x="470" y="1276"/>
			<point x="770" y="1276" type="curve" smooth="yes"/>
			<point x="1068" y="1276"/>
			<point x="1310" y="1015"/>
			<point x="1310" y="700" type="curve" smooth="yes"/>
			<point x="1310" y="387"/>
			<point x="1070" y="124"/>
		</contour>
	</outline>
</glyph>
<glyph name="R" format="2">
	<advance width="1143.5"/>
	<unicode hex="0052"/>
	<outline>
		<contour>
			<point x="139" y="0" type="line"/>
			<point x="289" y="0" type="line"/>
			<point x="289" y="579" type="line"/>
			<point x="535" y="579" type="line"/>
			<point x="871" y="0" type="line"/>
			<point x="1045" y="0" type="line"/>
			<point x="703" y="591" type="line"/>
			<point x="883" y="628"/>
			<point x="1019" y="786"/>
			<point x="1019" y="990" type="curve" smooth="yes"/>
			<point x="1019" y="1220"/>
			<point x="844" y="1400"/>
			<point x="620" y="1400" type="curve" smooth="yes"/>
			<point x="139" y="1400" type="line"/>
		</contour>
		<contour>
			<point x="289" y="729" type="line"/>
			<point x="289" y="1267" type="line"/>
			<point x="607" y="1267" type="line" smooth="yes"/>
			<point x="750" y="1267"/>
			<point x="869" y="1151"/>
			<point x="869" y="998" type="curve" smooth="yes"/>
			<point x="869" y="845"/>
			<point x="750" y="729"/>
			<point x="607" y="729" type="curve" smooth="yes"/>
		</contour>
	</outline>
</glyph>
<glyph name="S" format="2">
	<advance width="1222.75"/>
	<unicode hex="0053"/>
	<outline>
		<contour>
			<point x="611" y="-26" type="curve" smooth="yes"/>
			<point x="881" y="-26"/>
			<point x="1117" y="131"/>
			<point x="1117" y="373" type="curve" smooth="yes"/>
			<point x="1117" y="611"/>
			<point x="880" y="729"/>
			<point x="611" y="775" type="curve" smooth="yes"/>
			<point x="410" y="811"/>
			<point x="256" y="846"/>
			<point x="256" y="1022" type="curve" smooth="yes"/>
			<point x="256" y="1170"/>
			<point x="425" y="1271"/>
			<point x="611" y="1270" type="curve" smooth="yes"/>
			<point x="773" y="1270"/>
			<point x="938" y="1197"/>
			<point x="981" y="1077" type="curve"/>
			<point x="1123" y="1128" type="line"/>
			<point x="1053" y="1316"/>
			<point x="829" y="1421"/>
			<point x="611" y="1421" type="curve" smooth="yes"/>
			<point x="344" y="1421"/>
			<point x="106" y="1264"/>
			<point x="106" y="1022" type="curve" smooth="yes"/>
			<point x="106" y="762"/>
			<point x="323" y="672"/>
			<point x="611" y="623" type="curve" smooth="yes"/>
			<point x="788" y="592"/>
			<point x="967" y="527"/>
			<point x="967" y="373" type="curve" smooth="yes"/>
			<point x="967" y="223"/>
			<point x="797" y="124"/>
			<point x="611" y="124" type="curve" smooth="yes"/>
			<point x="448" y="124"/>
			<point x="283" y="198"/>
			<point x="241" y="318" type="curve"/>
			<point x="100" y="266" type="line"/>
			<point x="165" y="83"/>
			<point x="386" y="-26"/>
		</contour>
	</outline>
</glyph>
<glyph name="T" format="2">
	<advance width="1258.75"/>
	<unicode hex="0054"/>
	<outline>
		<contour>
			<point x="1179" y="1400" type="line"/>
			<point x="80" y="1400" type="line"/>
			<point x="80" y="1250" type="line"/>
			<point x="554" y="1250" type="line"/>
			<point x="554" y="0" type="line"/>
			<point x="704" y="0" type="line"/>
			<point x="704" y="1250" type="line"/>
			<point x="1179" y="1250" type="line"/>
		</contour>
	</outline>
</glyph>
<glyph name="U" format="2">
	<advance width="1329.25"/>
	<unicode hex="0055"/>
	<outline>
		<contour>
			<point x="665" y="-26" type="curve" smooth="yes"/>
			<point x="1001" y="-26"/>
			<point x="1209" y="246"/>
			<point x="1209" y="584" type="curve" smooth="yes"/>
			<point x="1209" y="1400" type="line"/>
			<point x="1059" y="1400" type="line"/>
			<point x="1059" y="584" type="line" smooth="yes"/>
			<point x="1059" y="335"/>
			<point x="922" y="124"/>
			<point x="665" y="124" type="curve" smooth="yes"/>
			<point x="411" y="124"/>
			<point x="270" y="333"/>
			<point x="270" y="584" type="curve" smooth="yes"/>
			<point x="270" y="1400" type="line"/>
			<point x="120" y="1400" type="line"/>
			<point x="120" y="584" type="line" smooth="yes"/>
			<point x="120" y="246"/>
			<point x="329" y="-26"/>
		</contour>
	</outline>
</glyph>
<glyph name="W" format="2">
	<advance width="1805"/>
	<unicode hex="0057"/>
	<outline>
		<contour>
			<point x="458" y="0" type="line"/>
			<point x="634" y="0" type="line"/>
			<point x="903" y="1054" type="line"/>
			<point x="1172" y="0" type="line"/>
			<point x="1349" y="0" type="line"/>
			<point x="1705" y="1400" type="line"/>
			<point x="1550" y="1400" type="line"/>
			<point x="1260" y="261" type="line"/>
			<point x="969" y="1400" type="line"/>
			<point x="836" y="1400" type="line"/>
			<point x="546" y="261" type="line"/>
			<point x="255" y="1400" type="line"/>
			<point x="100" y="1400" type="line"/>
		</contour>
	</outline>
</glyph>
<glyph name="Y" format="2">
	<advance width="1214.5"/>
	<unicode hex="0059"/>
	<outline>
		<contour>
			<point x="978" y="1400" type="line"/>
			<point x="607" y="797" type="line"/>
			<point x="237" y="1400" type="line"/>
			<point x="60" y="1400" type="line"/>
			<point x="532" y="634" type="line"/>
			<point x="532" y="0" type="line"/>
			<point x="682" y="0" type="line"/>
			<point x="682" y="634" type="line"/>
			<point x="1155" y="1400" type="line"/>
		</contour>
	</outline>
</glyph>
<glyph name="Z" format="2">
	<advance width="1372"/>
	<unicode hex="005A"/>
	<outline>
		<contour>
			<point x="120" y="0" type="line"/>
			<point x="1252" y="0" type="line"/>
			<point x="1252" y="150" type="line"/>
			<point x="321" y="150" type="line"/>
			<point x="1252" y="1250" type="line"/>
			<point x="1252" y="1400" type="line"/>
			<point x="120" y="1400" type="line"/>
			<point x="120" y="1250" type="line"/>
			<point x="1051" y="1250" type="line"/>
			<point x="120" y="150" type="line"/>
		</contour>
	</outline>
</glyph>
<glyph name="bracketright" format="2">
	<advance width="549.25"/>
	<unicode hex="005D"/>
	<outline>
		<contour>
			<point x="100" y="-112" type="line"/>
			<point x="429" y="-112" type="line"/>
			<point x="429" y="1400" type="line"/>
			<point x="100" y="1400" type="line"/>
			<point x="100" y="1250" type="line"/>
			<point x="279" y="1250" type="line"/>
			<point x="279" y="38" type="line"/>
			<point x="100" y="38" type="line"/>
		</contour>
	</outline>
</glyph>
<glyph name="underscore" format="2">
	<advance width="1240"/>
	<unicode hex="005F"/>
	<outline>
		<contour>
			<point x="120" y="38" type="line"/>
			<point x="120" y="-112" type="line"/>
			<point x="1120" y="-112" type="line"/>
			<point x="1120" y="38" type="line"/>
		</contour>
	</outline>
</glyph>
<glyph name="grave" format="2">
	<advance width="1030"/>
	<unicode hex="0060"/>
	<outline>
		<contour>
			<point x="320" y="1426" type="line"/>
			<point x="478" y="1138" type="line"/>
			<point x="550" y="1138" type="line"/>
			<point x="470" y="1426" type="line"/>
		</contour>
	</outline>
</glyph>
<glyph name="d" format="2">
	<advance width="1217.5"/>
	<unicode hex="0064"/>
	<outline>
		<contour>
			<point x="936" y="1500" type="line"/>
			<point x="936" y="821" type="line"/>
			<point x="868" y="944"/>
			<point x="748" y="1027"/>
			<point x="586" y="1027" type="curve"/>
			<point x="296" y="1027"/>
			<point x="60" y="791"/>
			<point x="60" y="500" type="curve"/>
			<point x="60" y="210"/>
			<point x="296" y="-26"/>
			<point x="586" y="-26" type="curve"/>
			<point x="748" y="-26"/>
			<point x="868" y="57"/>
			<point x="936" y="181" type="curve"/>
			<point x="936" y="0" type="line"/>
			<point x="1086" y="0" type="line"/>
			<point x="1086" y="1500" type="line"/>
		</contour>
		<contour>
			<point x="588" y="120" type="curve"/>
			<point x="386" y="120"/>
			<point x="213" y="287"/>
			<point x="213" y="500" type="curve"/>
			<point x="213" y="711"/>
			<point x="382" y="882"/>
			<point x="588" y="882" type="curve"/>
			<point x="793" y="882"/>
			<point x="924" y="713"/>
			<point x="924" y="500" type="curve"/>
			<point x="924" y="291"/>
			<point x="795" y="120"/>
		</contour>
	</outline>
</glyph>
<glyph name="g" format="2">
	<advance width="1180.25"/>
	<unicode hex="0067"/>
	<outline>
		<contour>
			<point x="910" y="1000" type="line"/>
			<point x="910" y="823" type="line"/>
			<point x="842" y="945"/>
			<point x="723" y="1027"/>
			<point x="570" y="1027" type="curve" smooth="yes"/>
			<point x="289" y="1027"/>
			<point x="60" y="791"/>
			<point x="60" y="500" type="curve" smooth="yes"/>
			<point x="60" y="210"/>
			<point x="289" y="-26"/>
			<point x="570" y="-26" type="curve" smooth="yes"/>
			<point x="723" y="-26"/>
			<point x="842" y="56"/>
			<point x="910" y="178" type="curve"/>
			<point x="910" y="-35" type="line" smooth="yes"/>
			<point x="910" y="-209"/>
			<point x="735" y="-349"/>
			<point x="555" y="-349" type="curve" smooth="yes"/>
			<point x="408" y="-349"/>
			<point x="257" y="-236"/>
			<point x="220" y="-90" type="curve"/>
			<point x="83" y="-153" type="line"/>
			<point x="144" y="-345"/>
			<point x="345" y="-500"/>
			<point x="555" y="-500" type="curve" smooth="yes"/>
			<point x="816" y="-500"/>
			<point x="1060" y="-294"/>
			<point x="1060" y="-35" type="curve" smooth="yes"/>
			<point x="1060" y="1000" type="line"/>
		</contour>
		<contour>
			<point x="571" y="120" type="curve" smooth="yes"/>
			<point x="376" y="120"/>
			<point x="213" y="288"/>
			<point x="213" y="500" type="curve" smooth="yes"/>
			<point x="213" y="711"/>
			<point x="372" y="882"/>
			<point x="571" y="882" type="curve" smooth="yes"/>
			<point x="770" y="882"/>
			<point x="902" y="708"/>
			<point x="902" y="500" type="curve" smooth="yes"/>
			<point x="902" y="296"/>
			<point x="773" y="120"/>
		</contour>
	</outline>
</glyph>
<glyph name="i" format="2">
	<advance width="409.5"/>
	<unicode hex="0069"/>
	<outline>
		<contour>
			<point x="125" y="1000" type="line"/>
			<point x="125" y="0" type="line"/>
			<point x="275" y="0" type="line"/>
			<point x="275" y="1000" type="line"/>
		</contour>
		<contour>
			<point x="204" y="1163" type="curve"/>
			<point x="250" y="1163"/>
			<point x="289" y="1202"/>
			<point x="289" y="1246" type="curve"/>
			<point x="289" y="1292"/>
			<point x="250" y="1331"/>
			<point x="204" y="1331" type="curve"/>
			<point x="158" y="1331"/>
			<point x="120" y="1292"/>
			<point x="120" y="1246" type="curve"/>
			<point x="120" y="1202"/>
			<point x="158" y="1163"/>
		</contour>
	</outline>
</glyph>
<glyph name="k" format="2">
	<advance width="1009.25"/>
	<unicode hex="006B"/>
	<outline>
		<contour>
			<point x="930" y="0" type="line"/>
			<point x="585" y="597" type="line"/>
			<point x="924" y="1000" type="line"/>
			<point x="729" y="1000" type="line"/>
			<point x="289" y="476" type="line"/>
			<point x="289" y="1500" type="line"/>
			<point x="139" y="1500" type="line"/>
			<point x="139" y="0" type="line"/>
			<point x="289" y="0" type="line"/>
			<point x="289" y="242" type="line"/>
			<point x="483" y="474" type="line"/>
			<point x="758" y="0" type="line"/>
		</contour>
	</outline>
</glyph>
<glyph name="l" format="2">
	<advance width="427.5"/>
	<unicode hex="006C"/>
	<outline>
		<contour>
			<point x="139" y="1" type="line"/>
			<point x="289" y="1" type="line"/>
			<point x="289" y="1500" type="line"/>
			<point x="139" y="1500" type="line"/>
		</contour>
	</outline>
</glyph>
<glyph name="m" format="2">
	<advance width="1712.25"/>
	<unicode hex="006D"/>
	<outline>
		<contour>
			<point x="93" y="0" type="line"/>
			<point x="243" y="0" type="line"/>
			<point x="243" y="531" type="line" smooth="yes"/>
			<point x="243" y="710"/>
			<point x="351" y="869"/>
			<point x="506" y="869" type="curve" smooth="yes"/>
			<point x="671" y="869"/>
			<point x="781" y="723"/>
			<point x="781" y="543" type="curve" smooth="yes"/>
			<point x="781" y="0" type="line"/>
			<point x="931" y="0" type="line"/>
			<point x="931" y="543" type="line" smooth="yes"/>
			<point x="931" y="723"/>
			<point x="1041" y="869"/>
			<point x="1207" y="869" type="curve" smooth="yes"/>
			<point x="1372" y="869"/>
			<point x="1470" y="723"/>
			<point x="1470" y="543" type="curve" smooth="yes"/>
			<point x="1470" y="0" type="line"/>
			<point x="1620" y="0" type="line"/>
			<point x="1620" y="543" type="line" smooth="yes"/>
			<point x="1620" y="801"/>
			<point x="1459" y="1019"/>
			<point x="1207" y="1019" type="curve" smooth="yes"/>
			<point x="1047" y="1019"/>
			<point x="928" y="935"/>
			<point x="856" y="794" type="curve"/>
			<point x="785" y="932"/>
			<point x="670" y="1019"/>
			<point x="506" y="1019" type="curve" smooth="yes"/>
			<point x="383" y="1019"/>
			<point x="310" y="956"/>
			<point x="243" y="852" type="curve"/>
			<point x="243" y="1000" type="line"/>
			<point x="93" y="1000" type="line"/>
		</contour>
	</outline>
</glyph>
<glyph name="n" format="2">
	<advance width="1104.75"/>
	<unicode hex="006E"/>
	<outline>
		<contour>
			<point x="1005" y="536" type="line"/>
			<point x="1002" y="802"/>
			<point x="826" y="1028"/>
			<point x="568" y="1028" type="curve"/>
			<point x="435" y="1028"/>
			<point x="325" y="956"/>
			<point x="250" y="838" type="curve"/>
			<point x="250" y="1000" type="line"/>
			<point x="100" y="1000" type="line"/>
			<point x="100" y="0" type="line"/>
			<point x="250" y="0" type="line"/>
			<point x="250" y="532" type="line"/>
			<point x="250" y="725"/>
			<point x="377" y="883"/>
			<point x="548" y="883" type="curve"/>
			<point x="721" y="883"/>
			<point x="855" y="725"/>
			<point x="855" y="532" type="curve"/>
			<point x="855" y="0" type="line"/>
			<point x="1005" y="0" type="line"/>
		</contour>
	</outline>
</glyph>
<glyph name="o" format="2">
	<advance width="1120"/>
	<unicode hex="006F"/>
	<outline>
		<contour>
			<point x="560" y="-26" type="curve" smooth="yes"/>
			<point x="836" y="-26"/>
			<point x="1060" y="210"/>
			<point x="1060" y="500" type="curve" smooth="yes"/>
			<point x="1060" y="792"/>
			<point x="836" y="1028"/>
			<point x="560" y="1028" type="curve" smooth="yes"/>
			<point x="284" y="1028"/>
			<point x="60" y="792"/>
			<point x="60" y="500" type="curve" smooth="yes"/>
			<point x="60" y="210"/>
			<point x="284" y="-26"/>
		</contour>
		<contour>
			<point x="560" y="124" type="curve" smooth="yes"/>
			<point x="370" y="124"/>
			<point x="210" y="290"/>
			<point x="210" y="500" type="curve" smooth="yes"/>
			<point x="210" y="703"/>
			<point x="362" y="878"/>
			<point x="560" y="878" type="curve" smooth="yes"/>
			<point x="756" y="878"/>
			<point x="910" y="705"/>
			<point x="910" y="500" type="curve" smooth="yes"/>
			<point x="910" y="298"/>
			<point x="758" y="124"/>
		</contour>
	</outline>
</glyph>
<glyph name="p" format="2">
	<advance width="1225.5"/>
	<unicode hex="0070"/>
	<outline>
		<contour>
			<point x="270" y="-500" type="line"/>
			<point x="270" y="180" type="line"/>
			<point x="338" y="56"/>
			<point x="458" y="-28"/>
			<point x="620" y="-28" type="curve"/>
			<point x="910" y="-28"/>
			<point x="1146" y="208"/>
			<point x="1146" y="500" type="curve"/>
			<point x="1146" y="790"/>
			<point x="910" y="1026"/>
			<point x="620" y="1026" type="curve"/>
			<point x="458" y="1026"/>
			<point x="338" y="942"/>
			<point x="270" y="819" type="curve"/>
			<point x="270" y="1000" type="line"/>
			<point x="120" y="1000" type="line"/>
			<point x="120" y="-500" type="line"/>
		</contour>
		<contour>
			<point x="618" y="881" type="curve"/>
			<point x="826" y="881"/>
			<point x="993" y="709"/>
			<point x="993" y="500" type="curve"/>
			<point x="993" y="286"/>
			<point x="821" y="118"/>
			<point x="618" y="118" type="curve"/>
			<point x="411" y="118"/>
			<point x="282" y="291"/>
			<point x="282" y="500" type="curve"/>
			<point x="282" y="711"/>
			<point x="414" y="881"/>
		</contour>
	</outline>
</glyph>
<glyph name="r" format="2">
	<advance width="738.25"/>
	<unicode hex="0072"/>
	<outline>
		<contour>
			<point x="684" y="853" type="curve"/>
			<point x="708" y="1012" type="line"/>
			<point x="672" y="1024"/>
			<point x="632" y="1027"/>
			<point x="590" y="1027" type="curve" smooth="yes"/>
			<point x="457" y="1027"/>
			<point x="345" y="956"/>
			<point x="270" y="838" type="curve"/>
			<point x="270" y="999" type="line"/>
			<point x="120" y="999" type="line"/>
			<point x="120" y="0" type="line"/>
			<point x="271" y="0" type="line"/>
			<point x="271" y="531" type="line" smooth="yes"/>
			<point x="271" y="725"/>
			<point x="397" y="882"/>
			<point x="569" y="882" type="curve" smooth="yes"/>
			<point x="612" y="882"/>
			<point x="651" y="871"/>
		</contour>
	</outline>
</glyph>
<glyph name="v" format="2">
	<advance width="1041"/>
	<unicode hex="0076"/>
	<outline>
		<contour>
			<point x="616" y="0" type="line"/>
			<point x="981" y="1003" type="line"/>
			<point x="821" y="1003" type="line"/>
			<point x="521" y="175" type="line"/>
			<point x="220" y="1003" type="line"/>
			<point x="60" y="1003" type="line"/>
			<point x="425" y="0" type="line"/>
		</contour>
	</outline>
</glyph>
<glyph name="x" format="2">
	<advance width="1077"/>
	<unicode hex="0078"/>
	<outline>
		<contour>
			<point x="80" y="0" type="line"/>
			<point x="265" y="0" type="line"/>
			<point x="539" y="376" type="line"/>
			<point x="812" y="0" type="line"/>
			<point x="997" y="0" type="line"/>
			<point x="631" y="502" type="line"/>
			<point x="996" y="1003" type="line"/>
			<point x="811" y="1003" type="line"/>
			<point x="539" y="631" type="line"/>
			<point x="267" y="1003" type="line"/>
			<point x="82" y="1003" type="line"/>
			<point x="446" y="502" type="line"/>
		</contour>
	</outline>
</glyph>
<glyph name="z" format="2">
	<advance width="1069"/>
	<unicode hex="007A"/>
	<outline>
		<contour>
			<point x="962" y="850" type="line"/>
			<point x="962" y="1000" type="line"/>
			<point x="108" y="1000" type="line"/>
			<point x="108" y="850" type="line"/>
			<point x="749" y="850" type="line"/>
			<point x="108" y="150" type="line"/>
			<point x="108" y="0" type="line"/>
			<point x="962" y="0" type="line"/>
			<point x="962" y="150" type="line"/>
			<point x="320" y="150" type="line"/>
		</contour>
	</outline>
</glyph>
<glyph name="braceleft" format="2">
	<advance width="805"/>
	<unicode hex="007B"/>
	<outline>
		<contour>
			<point x="628" y="-113" type="curve" smooth="yes"/>
			<point x="705" y="-113" type="line"/>
			<point x="705" y="37" type="line"/>
			<point x="628" y="37" type="line" smooth="yes"/>
			<point x="517" y="37"/>
			<point x="428" y="126"/>
			<point x="428" y="237" type="curve" smooth="yes"/>
			<point x="428" y="488" type="line" smooth="yes"/>
			<point x="424" y="566"/>
			<point x="382" y="578"/>
			<point x="310" y="643" type="curve" smooth="yes"/>
			<point x="380" y="704"/>
			<point x="424" y="722"/>
			<point x="428" y="799" type="curve" smooth="yes"/>
			<point x="428" y="1050" type="line" smooth="yes"/>
			<point x="428" y="1161"/>
			<point x="519" y="1250"/>
			<point x="628" y="1250" type="curve" smooth="yes"/>
			<point x="705" y="1250" type="line"/>
			<point x="705" y="1400" type="line"/>
			<point x="628" y="1400" type="line" smooth="yes"/>
			<point x="434" y="1400"/>
			<point x="278" y="1242"/>
			<point x="278" y="1050" type="curve" smooth="yes"/>
			<point x="278" y="804" type="line" smooth="yes"/>
			<point x="274" y="721"/>
			<point x="120" y="729"/>
			<point x="120" y="643" type="curve" smooth="yes"/>
			<point x="120" y="559"/>
			<point x="274" y="569"/>
			<point x="278" y="482" type="curve" smooth="yes"/>
			<point x="278" y="237" type="line" smooth="yes"/>
			<point x="278" y="44"/>
			<point x="434" y="-113"/>
		</contour>
	</outline>
</glyph>
<glyph name="braceright" format="2">
	<advance width="805"/>
	<unicode hex="007D"/>
	<outline>
		<contour>
			<point x="100" y="-113" type="line"/>
			<point x="177" y="-113" type="line" smooth="yes"/>
			<point x="371" y="-113"/>
			<point x="527" y="44"/>
			<point x="527" y="237" type="curve" smooth="yes"/>
			<point x="527" y="482" type="line" smooth="yes"/>
			<point x="531" y="569"/>
			<point x="685" y="559"/>
			<point x="685" y="643" type="curve" smooth="yes"/>
			<point x="685" y="729"/>
			<point x="531" y="721"/>
			<point x="527" y="804" type="curve" smooth="yes"/>
			<point x="527" y="1050" type="line" smooth="yes"/>
			<point x="527" y="1242"/>
			<point x="371" y="1400"/>
			<point x="177" y="1400" type="curve" smooth="yes"/>
			<point x="100" y="1400" type="line"/>
			<point x="100" y="1250" type="line"/>
			<point x="177" y="1250" type="line" smooth="yes"/>
			<point x="287" y="1250"/>
			<point x="377" y="1161"/>
			<point x="377" y="1050" type="curve" smooth="yes"/>
			<point x="377" y="799" type="line"/>
			<point x="381" y="722"/>
			<point x="426" y="704"/>
			<point x="496" y="643" type="curve" smooth="yes"/>
			<point x="423" y="578"/>
			<point x="381" y="566"/>
			<point x="377" y="488" type="curve"/>
			<point x="377" y="237" type="line" smooth="yes"/>
			<point x="377" y="126"/>
			<point x="288" y="37"/>
			<point x="177" y="37" type="curve" smooth="yes"/>
			<point x="100" y="37" type="line"/>
		</contour>
	</outline>
</glyph>
<glyph name="sterling" format="2">
	<advance width="1164"/>
	<unicode hex="00A3"/>
	<outline>
		<contour>
			<point x="104" y="0" type="line"/>
			<point x="1074" y="0" type="line"/>
			<point x="1074" y="150" type="line"/>
			<point x="427" y="150" type="line"/>
			<point x="483" y="177"/>
			<point x="543" y="250"/>
			<point x="543" y="329" type="curve" smooth="yes"/>
			<point x="543" y="657"/>
			<point x="230" y="606"/>
			<point x="230" y="925" type="curve" smooth="yes"/>
			<point x="230" y="1118"/>
			<point x="388" y="1276"/>
			<point x="581" y="1276" type="curve" smooth="yes"/>
			<point x="776" y="1276"/>
			<point x="934" y="1118"/>
			<point x="934" y="925" type="curve"/>
			<point x="1084" y="925" type="line"/>
			<point x="1084" y="1201"/>
			<point x="859" y="1426"/>
			<point x="581" y="1426" type="curve" smooth="yes"/>
			<point x="306" y="1426"/>
			<point x="80" y="1201"/>
			<point x="80" y="925" type="curve" smooth="yes"/>
			<point x="80" y="617"/>
			<point x="366" y="609"/>
			<point x="388" y="365" type="curve" smooth="yes"/>
			<point x="413" y="234"/>
			<point x="256" y="150"/>
			<point x="104" y="150" type="curve"/>
		</contour>
		<contour>
			<point x="104" y="449" type="line"/>
			<point x="857" y="449" type="line"/>
			<point x="857" y="562" type="line"/>
			<point x="104" y="562" type="line"/>
		</contour>
	</outline>
</glyph>
<glyph name="currency" format="2">
	<advance width="987.5"/>
	<unicode hex="00A4"/>
	<outline>
		<contour>
			<point x="160" y="286" type="line"/>
			<point x="283" y="411" type="line"/>
			<point x="410" y="315"/>
			<point x="579" y="314"/>
			<point x="706" y="409" type="curve"/>
			<point x="829" y="286" type="line"/>
			<point x="908" y="365" type="line"/>
			<point x="786" y="488" type="line"/>
			<point x="878" y="612"/>
			<point x="878" y="786"/>
			<point x="784" y="911" type="curve"/>
			<point x="908" y="1036" type="line"/>
			<point x="829" y="1114" type="line"/>
			<point x="703" y="989" type="line"/>
			<point x="582" y="1079"/>
			<point x="407" y="1078"/>
			<point x="287" y="987" type="curve"/>
			<point x="160" y="1114" type="line"/>
			<point x="80" y="1036" type="line"/>
			<point x="207" y="908" type="line"/>
			<point x="114" y="784"/>
			<point x="114" y="614"/>
			<point x="205" y="491" type="curve"/>
			<point x="80" y="365" type="line"/>
		</contour>
		<contour>
			<point x="496" y="451" type="curve" smooth="yes"/>
			<point x="364" y="450"/>
			<point x="249" y="559"/>
			<point x="249" y="698" type="curve" smooth="yes"/>
			<point x="249" y="832"/>
			<point x="357" y="945"/>
			<point x="496" y="944" type="curve" smooth="yes"/>
			<point x="631" y="943"/>
			<point x="742" y="838"/>
			<point x="742" y="698" type="curve" smooth="yes"/>
			<point x="742" y="561"/>
			<point x="631" y="452"/>
		</contour>
	</outline>
</glyph>
<glyph name="macron" format="2">
	<advance width="1200"/>
	<unicode hex="00AF"/>
	<outline>
		<contour>
			<point x="262" y="1367" type="line"/>
			<point x="262" y="1217" type="line"/>
			<point x="938" y="1217" type="line"/>
			<point x="938" y="1367" type="line"/>
		</contour>
	</outline>
</glyph>
<glyph name="plusminus" format="2">
	<advance width="1160"/>
	<unicode hex="00B1"/>
	<outline>
		<contour>
			<point x="505" y="338" type="line"/>
			<point x="655" y="338" type="line"/>
			<point x="655" y="763" type="line"/>
			<point x="1080" y="763" type="line"/>
			<point x="1080" y="913" type="line"/>
			<point x="655" y="913" type="line"/>
			<point x="655" y="1338" type="line"/>
			<point x="505" y="1338" type="line"/>
			<point x="505" y="913" type="line"/>
			<point x="80" y="913" type="line"/>
			<point x="80" y="763" type="line"/>
			<point x="505" y="763" type="line"/>
		</contour>
		<contour>
			<point x="80" y="1" type="line"/>
			<point x="1080" y="1" type="line"/>
			<point x="1080" y="151" type="line"/>
			<point x="80" y="151" type="line"/>
		</contour>
	</outline>
</glyph>
<glyph name="uni00B2" format="2">
	<advance width="691.375"/>
	<unicode hex="00B2"/>
	<outline>
		<contour>
			<point x="96" y="818" type="line"/>
			<point x="543" y="818" type="line"/>
			<point x="543" y="926" type="line"/>
			<point x="287" y="926" type="line"/>
			<point x="397" y="1007"/>
			<point x="547" y="1140"/>
			<point x="547" y="1253" type="curve"/>
			<point x="547" y="1378"/>
			<point x="447" y="1468"/>
			<point x="323" y="1468" type="curve"/>
			<point x="197" y="1468"/>
			<point x="96" y="1378"/>
			<point x="96" y="1253" type="curve"/>
			<point x="204" y="1253" type="line"/>
			<point x="204" y="1319"/>
			<point x="257" y="1365"/>
			<point x="323" y="1365" type="curve"/>
			<point x="388" y="1365"/>
			<point x="439" y="1319"/>
			<point x="439" y="1253" type="curve"/>
			<point x="412" y="1130"/>
			<point x="200" y="989"/>
			<point x="96" y="919" type="curve"/>
		</contour>
	</outline>
</glyph>
<glyph name="paragraph" format="2">
	<advance width="876"/>
	<unicode hex="00B6"/>
	<outline>
		<contour>
			<point x="420" y="-302" type="line"/>
			<point x="570" y="-302" type="line"/>
			<point x="570" y="1400" type="line"/>
			<point x="420" y="1400" type="line" smooth="yes"/>
			<point x="232" y="1400"/>
			<point x="80" y="1247"/>
			<point x="80" y="1059" type="curve" smooth="yes"/>
			<point x="80" y="870"/>
			<point x="232" y="718"/>
			<point x="420" y="718" type="curve"/>
		</contour>
		<contour>
			<point x="646" y="-302" type="line"/>
			<point x="796" y="-302" type="line"/>
			<point x="796" y="1400" type="line"/>
			<point x="646" y="1400" type="line"/>
		</contour>
	</outline>
</glyph>
<glyph name="periodcentered" format="2">
	<advance width="328.75"/>
	<unicode hex="00B7"/>
	<outline>
		<contour>
			<point x="164" y="516" type="curve" smooth="yes"/>
			<point x="211" y="516"/>
			<point x="249" y="553"/>
			<point x="249" y="601" type="curve" smooth="yes"/>
			<point x="249" y="646"/>
			<point x="211" y="684"/>
			<point x="164" y="684" type="curve" smooth="yes"/>
			<point x="117" y="684"/>
			<point x="80" y="646"/>
			<point x="80" y="601" type="curve" smooth="yes"/>
			<point x="80" y="553"/>
			<point x="117" y="516"/>
		</contour>
	</outline>
</glyph>
<glyph name="uni00B9" format="2">
	<advance width="425.375"/>
	<unicode hex="00B9"/>
	<outline>
		<contour>
			<point x="173" y="818" type="line"/>
			<point x="281" y="818" type="line"/>
			<point x="281" y="1449" type="line"/>
			<point x="111" y="1449" type="line"/>
			<point x="96" y="1341" type="line"/>
			<point x="173" y="1341" type="line"/>
		</contour>
	</outline>
</glyph>
<glyph name="questiondown" format="2">
	<advance width="989"/>
	<unicode hex="00BF"/>
	<outline>
		<contour>
			<point x="487" y="-427" type="curve" smooth="yes"/>
			<point x="712" y="-427"/>
			<point x="894" y="-245"/>
			<point x="894" y="-21" type="curve"/>
			<point x="744" y="-21" type="line"/>
			<point x="744" y="-162"/>
			<point x="628" y="-277"/>
			<point x="487" y="-277" type="curve" smooth="yes"/>
			<point x="346" y="-277"/>
			<point x="230" y="-162"/>
			<point x="230" y="-21" type="curve" smooth="yes"/>
			<point x="230" y="77"/>
			<point x="279" y="164"/>
			<point x="359" y="208" type="curve" smooth="yes"/>
			<point x="477" y="273"/>
			<point x="548" y="393"/>
			<point x="548" y="525" type="curve"/>
			<point x="398" y="525" type="line"/>
			<point x="398" y="446"/>
			<point x="356" y="376"/>
			<point x="288" y="340" type="curve" smooth="yes"/>
			<point x="159" y="271"/>
			<point x="80" y="132"/>
			<point x="80" y="-21" type="curve" smooth="yes"/>
			<point x="80" y="-245"/>
			<point x="262" y="-427"/>
		</contour>
		<contour>
			<point x="476" y="857" type="curve" smooth="yes"/>
			<point x="522" y="857"/>
			<point x="560" y="895"/>
			<point x="560" y="940" type="curve" smooth="yes"/>
			<point x="560" y="989"/>
			<point x="522" y="1026"/>
			<point x="476" y="1026" type="curve" smooth="yes"/>
			<point x="429" y="1026"/>
			<point x="392" y="989"/>
			<point x="392" y="940" type="curve" smooth="yes"/>
			<point x="392" y="895"/>
			<point x="429" y="857"/>
		</contour>
	</outline>
</glyph>
<glyph name="AE" format="2">
	<advance width="1625"/>
	<unicode hex="00C6"/>
	<outline>
		<contour>
			<point x="80" y="0" type="line"/>
			<point x="239" y="0" type="line"/>
			<point x="347" y="295" type="line"/>
			<point x="811" y="295" type="line"/>
			<point x="811" y="0" type="line"/>
			<point x="1525" y="0" type="line"/>
			<point x="1525" y="150" type="line"/>
			<point x="961" y="150" type="line"/>
			<point x="961" y="625" type="line"/>
			<point x="1429" y="625" type="line"/>
			<point x="1429" y="775" type="line"/>
			<point x="961" y="775" type="line"/>
			<point x="961" y="1250" type="line"/>
			<point x="1525" y="1250" type="line"/>
			<point x="1525" y="1400" type="line"/>
			<point x="589" y="1400" type="line"/>
		</contour>
		<contour>
			<point x="402" y="445" type="line"/>
			<point x="696" y="1250" type="line"/>
			<point x="811" y="1250" type="line"/>
			<point x="811" y="445" type="line"/>
		</contour>
	</outline>
</glyph>
<glyph name="Eth" format="2">
	<advance width="1455.75"/>
	<unicode hex="00D0"/>
	<outline>
		<contour>
			<point x="233" y="0" type="line"/>
			<point x="696" y="0" type="line" smooth="yes"/>
			<point x="1082" y="0"/>
			<point x="1396" y="314"/>
			<point x="1396" y="700" type="curve" smooth="yes"/>
			<point x="1396" y="1086"/>
			<point x="1082" y="1400"/>
			<point x="696" y="1400" type="curve" smooth="yes"/>
			<point x="233" y="1400" type="line"/>
			<point x="233" y="825" type="line"/>
			<point x="100" y="825" type="line"/>
			<point x="100" y="675" type="line"/>
			<point x="233" y="675" type="line"/>
		</contour>
		<contour>
			<point x="383" y="150" type="line"/>
			<point x="383" y="675" type="line"/>
			<point x="721" y="675" type="line"/>
			<point x="721" y="825" type="line"/>
			<point x="383" y="825" type="line"/>
			<point x="383" y="1250" type="line"/>
			<point x="696" y="1250" type="line" smooth="yes"/>
			<point x="993" y="1250"/>
			<point x="1246" y="1008"/>
			<point x="1246" y="700" type="curve" smooth="yes"/>
			<point x="1246" y="401"/>
			<point x="1003" y="150"/>
			<point x="696" y="150" type="curve" smooth="yes"/>
		</contour>
	</outline>
</glyph>
<glyph name="multiply" format="2">
	<advance width="973"/>
	<unicode hex="00D7"/>
	<outline>
		<contour>
			<point x="186" y="194" type="line"/>
			<point x="486" y="494" type="line"/>
			<point x="786" y="194" type="line"/>
			<point x="893" y="300" type="line"/>
			<point x="591" y="600" type="line"/>
			<point x="893" y="901" type="line"/>
			<point x="786" y="1006" type="line"/>
			<point x="486" y="706" type="line"/>
			<point x="186" y="1006" type="line"/>
			<point x="80" y="901" type="line"/>
			<point x="380" y="600" type="line"/>
			<point x="80" y="300" type="line"/>
		</contour>
	</outline>
</glyph>
<glyph name="Oslash" format="2">
	<advance width="1540"/>
	<unicode hex="00D8"/>
	<outline>
		<contour>
			<point x="405" y="-85" type="line"/>
			<point x="479" y="45" type="line"/>
			<point x="568" y="1"/>
			<point x="666" y="-26"/>
			<point x="770" y="-26" type="curve" smooth="yes"/>
			<point x="1150" y="-26"/>
			<point x="1460" y="300"/>
			<point x="1460" y="700" type="curve" smooth="yes"/>
			<point x="1460" y="935"/>
			<point x="1353" y="1143"/>
			<point x="1189" y="1275" type="curve"/>
			<point x="1267" y="1410" type="line"/>
			<point x="1137" y="1485" type="line"/>
			<point x="1063" y="1356" type="line"/>
			<point x="974" y="1401"/>
			<point x="876" y="1426"/>
			<point x="770" y="1426" type="curve" smooth="yes"/>
			<point x="390" y="1426"/>
			<point x="80" y="1100"/>
			<point x="80" y="700" type="curve" smooth="yes"/>
			<point x="80" y="467"/>
			<point x="189" y="258"/>
			<point x="353" y="126" type="curve"/>
			<point x="275" y="-10" type="line"/>
		</contour>
		<contour>
			<point x="432" y="263" type="line"/>
			<point x="309" y="365"/>
			<point x="230" y="523"/>
			<point x="230" y="700" type="curve" smooth="yes"/>
			<point x="230" y="1013"/>
			<point x="470" y="1276"/>
			<point x="770" y="1276" type="curve" smooth="yes"/>
			<point x="848" y="1276"/>
			<point x="922" y="1257"/>
			<point x="986" y="1223" type="curve"/>
		</contour>
		<contour>
			<point x="770" y="124" type="curve" smooth="yes"/>
			<point x="694" y="124"/>
			<point x="620" y="144"/>
			<point x="556" y="178" type="curve"/>
			<point x="1111" y="1138" type="line"/>
			<point x="1232" y="1036"/>
			<point x="1310" y="877"/>
			<point x="1310" y="700" type="curve" smooth="yes"/>
			<point x="1310" y="387"/>
			<point x="1070" y="124"/>
		</contour>
	</outline>
</glyph>
<glyph name="igrave" format="2">
	<advance width="408.75"/>
	<unicode hex="00EC"/>
	<outline>
		<contour>
			<point x="139" y="1000" type="line"/>
			<point x="139" y="0" type="line"/>
			<point x="289" y="0" type="line"/>
			<point x="289" y="1000" type="line"/>
		</contour>
		<component base="grave" xOffset="-300"/>
	</outline>
</glyph>
<glyph name="iacute" format="2">
	<advance width="410"/>
	<unicode hex="00ED"/>
	<outline>
		<contour>
			<point x="120" y="1000" type="line"/>
			<point x="120" y="0" type="line"/>
			<point x="270" y="0" type="line"/>
			<point x="270" y="1000" type="line"/>
		</contour>
		<component base="acutecomb" xOffset="-321"/>
	</outline>
</glyph>
<glyph name="icircumflex" format="2">
	<advance width="379.5"/>
	<unicode hex="00EE"/>
	<outline>
		<contour>
			<point x="114" y="1000" type="line"/>
			<point x="114" y="0" type="line"/>
			<point x="264" y="0" type="line"/>
			<point x="264" y="1000" type="line"/>
		</contour>
		<component base="uni0302" xOffset="-380"/>
	</outline>
</glyph>
<glyph name="idieresis" format="2">
	<advance width="614.5"/>
	<unicode hex="00EF"/>
	<outline>
		<contour>
			<point x="231" y="1000" type="line"/>
			<point x="231" y="0" type="line"/>
			<point x="381" y="0" type="line"/>
			<point x="381" y="1000" type="line"/>
		</contour>
		<component base="uni0308" xOffset="-340"/>
	</outline>
</glyph>
<glyph name="divide" format="2">
	<advance width="1160"/>
	<unicode hex="00F7"/>
	<outline>
		<contour>
			<point x="80" y="525" type="line"/>
			<point x="1080" y="525" type="line"/>
			<point x="1080" y="675" type="line"/>
			<point x="80" y="675" type="line"/>
		</contour>
		<contour>
			<point x="580" y="1069" type="curve"/>
			<point x="519" y="1069"/>
			<point x="474" y="1017"/>
			<point x="474" y="961" type="curve"/>
			<point x="474" y="903"/>
			<point x="519" y="855"/>
			<point x="580" y="855" type="curve"/>
			<point x="637" y="855"/>
			<point x="685" y="903"/>
			<point x="685" y="961" type="curve"/>
			<point x="685" y="1017"/>
			<point x="637" y="1069"/>
		</contour>
		<contour>
			<point x="580" y="344" type="curve"/>
			<point x="519" y="344"/>
			<point x="474" y="293"/>
			<point x="474" y="236" type="curve"/>
			<point x="474" y="178"/>
			<point x="519" y="131"/>
			<point x="580" y="131" type="curve"/>
			<point x="637" y="131"/>
			<point x="688" y="178"/>
			<point x="688" y="236" type="curve"/>
			<point x="688" y="293"/>
			<point x="637" y="344"/>
		</contour>
	</outline>
</glyph>
<glyph name="oslash" format="2">
	<advance width="1120"/>
	<unicode hex="00F8"/>
	<outline>
		<contour>
			<point x="311" y="-57" type="line"/>
			<point x="357" y="22" type="line"/>
			<point x="419" y="-8"/>
			<point x="487" y="-26"/>
			<point x="560" y="-26" type="curve" smooth="yes"/>
			<point x="836" y="-26"/>
			<point x="1060" y="210"/>
			<point x="1060" y="500" type="curve" smooth="yes"/>
			<point x="1060" y="669"/>
			<point x="987" y="817"/>
			<point x="872" y="913" type="curve"/>
			<point x="921" y="997" type="line"/>
			<point x="810" y="1061" type="line"/>
			<point x="763" y="982" type="line"/>
			<point x="703" y="1011"/>
			<point x="633" y="1028"/>
			<point x="560" y="1028" type="curve" smooth="yes"/>
			<point x="284" y="1028"/>
			<point x="60" y="792"/>
			<point x="60" y="500" type="curve" smooth="yes"/>
			<point x="60" y="335"/>
			<point x="135" y="187"/>
			<point x="250" y="91" type="curve"/>
			<point x="201" y="7" type="line"/>
		</contour>
		<contour>
			<point x="324" y="219" type="line"/>
			<point x="250" y="283"/>
			<point x="201" y="382"/>
			<point x="201" y="493" type="curve" smooth="yes"/>
			<point x="201" y="766"/>
			<point x="461" y="961"/>
			<point x="694" y="860" type="curve"/>
		</contour>
		<contour>
			<point x="427" y="144" type="curve"/>
			<point x="797" y="785" type="line"/>
			<point x="871" y="719"/>
			<point x="919" y="619"/>
			<point x="919" y="507" type="curve" smooth="yes"/>
			<point x="919" y="239"/>
			<point x="668" y="40"/>
		</contour>
	</outline>
</glyph>
<glyph name="thorn" format="2">
	<advance width="1225.5"/>
	<unicode hex="00FE"/>
	<outline>
		<contour>
			<point x="120" y="-500" type="line"/>
			<point x="270" y="-500" type="line"/>
			<point x="270" y="180" type="line"/>
			<point x="338" y="56"/>
			<point x="458" y="-28"/>
			<point x="620" y="-28" type="curve" smooth="yes"/>
			<point x="910" y="-28"/>
			<point x="1146" y="208"/>
			<point x="1146" y="500" type="curve" smooth="yes"/>
			<point x="1146" y="790"/>
			<point x="910" y="1026"/>
			<point x="620" y="1026" type="curve" smooth="yes"/>
			<point x="458" y="1026"/>
			<point x="338" y="942"/>
			<point x="270" y="819" type="curve"/>
			<point x="270" y="1400" type="line"/>
			<point x="120" y="1400" type="line"/>
		</contour>
		<contour>
			<point x="618" y="118" type="curve" smooth="yes"/>
			<point x="411" y="118"/>
			<point x="282" y="291"/>
			<point x="282" y="500" type="curve" smooth="yes"/>
			<point x="282" y="711"/>
			<point x="414" y="881"/>
			<point x="618" y="881" type="curve" smooth="yes"/>
			<point x="826" y="881"/>
			<point x="993" y="709"/>
			<point x="993" y="500" type="curve" smooth="yes"/>
			<point x="993" y="286"/>
			<point x="821" y="118"/>
		</contour>
	</outline>
</glyph>
<glyph name="dotlessi" format="2">
	<advance width="391"/>
	<unicode hex="0131"/>
	<outline>
		<contour>
			<point x="120" y="1000" type="line"/>
			<point x="120" y="0" type="line"/>
			<point x="270" y="0" type="line"/>
			<point x="270" y="1000" type="line"/>
		</contour>
	</outline>
</glyph>
<glyph name="oe" format="2">
	<advance width="1968.375"/>
	<unicode hex="0153"/>
	<outline>
		<contour>
			<point x="560" y="-26" type="curve" smooth="yes"/>
			<point x="746" y="-26"/>
			<point x="908" y="86"/>
			<point x="985" y="247" type="curve"/>
			<point x="1063" y="86"/>
			<point x="1224" y="-26"/>
			<point x="1410" y="-26" type="curve" smooth="yes"/>
			<point x="1610" y="-26"/>
			<point x="1782" y="98"/>
			<point x="1862" y="276" type="curve"/>
			<point x="1710" y="312" type="line"/>
			<point x="1646" y="195"/>
			<point x="1538" y="124"/>
			<point x="1410" y="124" type="curve" smooth="yes"/>
			<point x="1231" y="125"/>
			<point x="1092" y="261"/>
			<point x="1069" y="445" type="curve"/>
			<point x="1905" y="445" type="line"/>
			<point x="1924" y="773"/>
			<point x="1708" y="1028"/>
			<point x="1410" y="1028" type="curve" smooth="yes"/>
			<point x="1224" y="1028"/>
			<point x="1063" y="916"/>
			<point x="985" y="754" type="curve"/>
			<point x="908" y="916"/>
			<point x="746" y="1028"/>
			<point x="560" y="1028" type="curve" smooth="yes"/>
			<point x="284" y="1028"/>
			<point x="60" y="792"/>
			<point x="60" y="500" type="curve" smooth="yes"/>
			<point x="60" y="210"/>
			<point x="284" y="-26"/>
		</contour>
		<contour>
			<point x="560" y="124" type="curve" smooth="yes"/>
			<point x="370" y="124"/>
			<point x="210" y="290"/>
			<point x="210" y="500" type="curve" smooth="yes"/>
			<point x="210" y="703"/>
			<point x="362" y="878"/>
			<point x="560" y="878" type="curve" smooth="yes"/>
			<point x="756" y="878"/>
			<point x="910" y="705"/>
			<point x="910" y="500" type="curve" smooth="yes"/>
			<point x="910" y="298"/>
			<point x="758" y="124"/>
		</contour>
		<contour>
			<point x="1065" y="565" type="line"/>
			<point x="1085" y="748"/>
			<point x="1229" y="893"/>
			<point x="1410" y="893" type="curve" smooth="yes"/>
			<point x="1590" y="893"/>
			<point x="1738" y="743"/>
			<point x="1754" y="565" type="curve"/>
		</contour>
	</outline>
</glyph>
<glyph name="acutecomb" format="2">
	<advance width="1030"/>
	<unicode hex="0301"/>
	<outline>
		<contour>
			<point x="480" y="1138" type="line"/>
			<point x="553" y="1138" type="line"/>
			<point x="710" y="1426" type="line"/>
			<point x="560" y="1426" type="line"/>
		</contour>
	</outline>
</glyph>
<glyph name="uni0302" format="2">
	<advance width="1139.5"/>
	<unicode hex="0302"/>
	<outline>
		<contour>
			<point x="501" y="1400" type="line"/>
			<point x="400" y="1166" type="line"/>
			<point x="503" y="1166" type="line"/>
			<point x="571" y="1324" type="line"/>
			<point x="636" y="1166" type="line"/>
			<point x="740" y="1166" type="line"/>
			<point x="640" y="1400" type="line"/>
		</contour>
	</outline>
</glyph>
<glyph name="tildecomb" format="2">
	<advance width="1441.75"/>
	<unicode hex="0303"/>
	<outline>
		<contour>
			<point x="776" y="1269" type="curve" smooth="yes"/>
			<point x="895" y="1269"/>
			<point x="971" y="1380"/>
			<point x="931" y="1504" type="curve"/>
			<point x="831" y="1472" type="line"/>
			<point x="844" y="1438"/>
			<point x="831" y="1376"/>
			<point x="787" y="1376" type="curve" smooth="yes"/>
			<point x="723" y="1376"/>
			<point x="564" y="1520"/>
			<point x="464" y="1520" type="curve" smooth="yes"/>
			<point x="343" y="1520"/>
			<point x="271" y="1407"/>
			<point x="312" y="1289" type="curve"/>
			<point x="411" y="1316" type="line"/>
			<point x="398" y="1366"/>
			<point x="421" y="1404"/>
			<point x="454" y="1413" type="curve" smooth="yes"/>
			<point x="517" y="1430"/>
			<point x="677" y="1269"/>
		</contour>
	</outline>
</glyph>
<glyph name="uni0307" format="2">
	<advance width="969.5"/>
	<unicode hex="0307"/>
	<outline>
		<contour>
			<point x="486" y="1190" type="curve" smooth="yes"/>
			<point x="532" y="1190"/>
			<point x="570" y="1226"/>
			<point x="570" y="1274" type="curve" smooth="yes"/>
			<point x="570" y="1322"/>
			<point x="532" y="1358"/>
			<point x="486" y="1358" type="curve" smooth="yes"/>
			<point x="437" y="1358"/>
			<point x="400" y="1322"/>
			<point x="400" y="1274" type="curve" smooth="yes"/>
			<point x="400" y="1226"/>
			<point x="437" y="1190"/>
		</contour>
	</outline>
</glyph>
<glyph name="uni0327" format="2">
	<advance width="1225"/>
	<unicode hex="0327"/>
	<outline>
		<contour>
			<point x="400" y="-306" type="line"/>
			<point x="465" y="-306" type="line" smooth="yes"/>
			<point x="664" y="-306"/>
			<point x="825" y="-145"/>
			<point x="825" y="53" type="curve" smooth="yes"/>
			<point x="825" y="118" type="line"/>
			<point x="706" y="118" type="line"/>
			<point x="706" y="52" type="line" smooth="yes"/>
			<point x="706" y="-75"/>
			<point x="594" y="-187"/>
			<point x="467" y="-187" type="curve" smooth="yes"/>
			<point x="400" y="-187" type="line"/>
		</contour>
	</outline>
</glyph>
<glyph name="uni03BC" format="2">
	<advance width="1064.75"/>
	<unicode hex="03BC"/>
	<outline>
		<contour>
			<point x="80" y="-432" type="line"/>
			<point x="230" y="-432" type="line"/>
			<point x="230" y="130" type="line"/>
			<point x="294" y="37"/>
			<point x="395" y="-27"/>
			<point x="517" y="-27" type="curve" smooth="yes"/>
			<point x="650" y="-27"/>
			<point x="760" y="46"/>
			<point x="835" y="163" type="curve"/>
			<point x="835" y="0" type="line"/>
			<point x="985" y="0" type="line"/>
			<point x="985" y="1000" type="line"/>
			<point x="835" y="1000" type="line"/>
			<point x="835" y="470" type="line" smooth="yes"/>
			<point x="835" y="277"/>
			<point x="708" y="120"/>
			<point x="537" y="120" type="curve" smooth="yes"/>
			<point x="364" y="120"/>
			<point x="230" y="277"/>
			<point x="230" y="470" type="curve" smooth="yes"/>
			<point x="230" y="1000" type="line"/>
			<point x="80" y="1000" type="line"/>
		</contour>
	</outline>
</glyph>
<glyph name="uni1E9E" format="2">
	<advance width="1136"/>
	<unicode hex="1E9E"/>
	<outline>
		<contour>
			<point x="120" y="0" type="line"/>
			<point x="270" y="0" type="line"/>
			<point x="270" y="978" type="line" smooth="yes"/>
			<point x="270" y="1137"/>
			<point x="398" y="1265"/>
			<point x="549" y="1265" type="curve" smooth="yes"/>
			<point x="675" y="1265"/>
			<point x="787" y="1232"/>
			<point x="788" y="1123" type="curve" smooth="yes"/>
			<point x="789" y="1035"/>
			<point x="540" y="793"/>
			<point x="545" y="698" type="curve" smooth="yes"/>
			<point x="548" y="637" type="line"/>
			<point x="620" y="637" type="line" smooth="yes"/>
			<point x="762" y="637"/>
			<point x="939" y="564"/>
			<point x="939" y="387" type="curve" smooth="yes"/>
			<point x="939" y="207"/>
			<point x="764" y="133"/>
			<point x="621" y="133" type="curve" smooth="yes"/>
			<point x="531" y="133" type="line"/>
			<point x="566" y="0" type="line"/>
			<point x="633" y="0" type="line" smooth="yes"/>
			<point x="844" y="0"/>
			<point x="1076" y="133"/>
			<point x="1076" y="385" type="curve" smooth="yes"/>
			<point x="1076" y="587"/>
			<point x="880" y="751"/>
			<point x="688" y="725" type="curve"/>
			<point x="865" y="960"/>
			<point x="944" y="1033"/>
			<point x="944" y="1121" type="curve" smooth="yes"/>
			<point x="944" y="1293"/>
			<point x="769" y="1399"/>
			<point x="573" y="1399" type="curve" smooth="yes"/>
			<point x="323" y="1399"/>
			<point x="120" y="1196"/>
			<point x="120" y="946" type="curve" smooth="yes"/>
		</contour>
	</outline>
</glyph>
<glyph name="quoteright" format="2">
	<advance width="312"/>
	<unicode hex="2019"/>
	<unicode hex="2032"/>
	<outline>
		<contour>
			<point x="40" y="878" type="line"/>
			<point x="140" y="878" type="line"/>
			<point x="252" y="1400" type="line"/>
			<point x="102" y="1400" type="line"/>
		</contour>
	</outline>
</glyph>
<glyph name="dagger" format="2">
	<advance width="796"/>
	<unicode hex="2020"/>
	<outline>
		<contour>
			<point x="80" y="1088" type="line"/>
			<point x="323" y="1088" type="line"/>
			<point x="323" y="585" type="line"/>
			<point x="473" y="585" type="line"/>
			<point x="473" y="1088" type="line"/>
			<point x="716" y="1088" type="line"/>
			<point x="716" y="1238" type="line"/>
			<point x="473" y="1238" type="line"/>
			<point x="473" y="1500" type="line"/>
			<point x="323" y="1500" type="line"/>
			<point x="323" y="1238" type="line"/>
			<point x="80" y="1238" type="line"/>
		</contour>
	</outline>
</glyph>
<glyph name="bullet" format="2">
	<advance width="385"/>
	<unicode hex="2022"/>
	<outline>
		<contour>
			<point x="191" y="488" type="curve" smooth="yes"/>
			<point x="255" y="488"/>
			<point x="305" y="537"/>
			<point x="305" y="601" type="curve" smooth="yes"/>
			<point x="305" y="663"/>
			<point x="255" y="713"/>
			<point x="191" y="713" type="curve" smooth="yes"/>
			<point x="129" y="713"/>
			<point x="80" y="663"/>
			<point x="80" y="601" type="curve" smooth="yes"/>
			<point x="80" y="537"/>
			<point x="129" y="488"/>
		</contour>
	</outline>
</glyph>
<glyph name="perthousand" format="2">
	<advance width="1830"/>
	<unicode hex="2030"/>
	<outline>
		<contour>
			<point x="161" y="0" type="line"/>
			<point x="334" y="0" type="line"/>
			<point x="1142" y="1400" type="line"/>
			<point x="969" y="1400" type="line"/>
		</contour>
		<contour>
			<point x="325" y="848" type="curve"/>
			<point x="458" y="848"/>
			<point x="570" y="955"/>
			<point x="570" y="1092" type="curve"/>
			<point x="570" y="1227"/>
			<point x="460" y="1338"/>
			<point x="325" y="1338" type="curve"/>
			<point x="192" y="1338"/>
			<point x="80" y="1230"/>
			<point x="80" y="1092" type="curve"/>
			<point x="80" y="956"/>
			<point x="191" y="848"/>
		</contour>
		<contour>
			<point x="325" y="960" type="curve"/>
			<point x="251" y="960"/>
			<point x="193" y="1019"/>
			<point x="193" y="1092" type="curve"/>
			<point x="193" y="1166"/>
			<point x="251" y="1225"/>
			<point x="325" y="1225" type="curve"/>
			<point x="399" y="1225"/>
			<point x="457" y="1166"/>
			<point x="457" y="1092" type="curve"/>
			<point x="457" y="1019"/>
			<point x="399" y="960"/>
		</contour>
		<contour>
			<point x="941" y="62" type="curve"/>
			<point x="1076" y="62"/>
			<point x="1186" y="173"/>
			<point x="1186" y="307" type="curve"/>
			<point x="1186" y="440"/>
			<point x="1079" y="553"/>
			<point x="941" y="553" type="curve"/>
			<point x="809" y="553"/>
			<point x="695" y="445"/>
			<point x="695" y="307" type="curve"/>
			<point x="695" y="176"/>
			<point x="805" y="62"/>
		</contour>
		<contour>
			<point x="941" y="174" type="curve"/>
			<point x="868" y="174"/>
			<point x="808" y="234"/>
			<point x="808" y="307" type="curve"/>
			<point x="808" y="380"/>
			<point x="868" y="440"/>
			<point x="941" y="440" type="curve"/>
			<point x="1014" y="440"/>
			<point x="1074" y="380"/>
			<point x="1074" y="307" type="curve"/>
			<point x="1074" y="234"/>
			<point x="1014" y="174"/>
		</contour>
		<contour>
			<point x="1505" y="62" type="curve"/>
			<point x="1640" y="62"/>
			<point x="1750" y="173"/>
			<point x="1750" y="307" type="curve"/>
			<point x="1750" y="440"/>
			<point x="1643" y="553"/>
			<point x="1505" y="553" type="curve"/>
			<point x="1373" y="553"/>
			<point x="1259" y="445"/>
			<point x="1259" y="307" type="curve"/>
			<point x="1259" y="176"/>
			<point x="1369" y="62"/>
		</contour>
		<contour>
			<point x="1505" y="174" type="curve"/>
			<point x="1432" y="174"/>
			<point x="1372" y="234"/>
			<point x="1372" y="307" type="curve"/>
			<point x="1372" y="380"/>
			<point x="1432" y="440"/>
			<point x="1505" y="440" type="curve"/>
			<point x="1578" y="440"/>
			<point x="1638" y="380"/>
			<point x="1638" y="307" type="curve"/>
			<point x="1638" y="234"/>
			<point x="1578" y="174"/>
		</contour>
	</outline>
</glyph>
<glyph name="guilsinglleft" format="2">
	<advance width="682.5"/>
	<unicode hex="2039"/>
	<outline>
		<contour>
			<point x="420" y="261" type="line"/>
			<point x="583" y="261" type="line"/>
			<point x="283" y="601" type="line"/>
			<point x="583" y="939" type="line"/>
			<point x="420" y="939" type="line"/>
			<point x="120" y="601" type="line"/>
		</contour>
	</outline>
</glyph>
<glyph name="guilsinglright" format="2">
	<advance width="682.5"/>
	<unicode hex="203A"/>
	<outline>
		<contour>
			<point x="100" y="261" type="line"/>
			<point x="263" y="261" type="line"/>
			<point x="563" y="601" type="line"/>
			<point x="263" y="939" type="line"/>
			<point x="100" y="939" type="line"/>
			<point x="399" y="601" type="line"/>
		</contour>
	</outline>
</glyph>
<glyph name="fraction" format="2">
	<advance width="942.5"/>
	<unicode hex="2044"/>
	<unicode hex="2215"/>
	<outline>
		<contour>
			<point x="0" y="0" type="line"/>
			<point x="135" y="0" type="line"/>
			<point x="943" y="1400" type="line"/>
			<point x="808" y="1400" type="line"/>
		</contour>
	</outline>
</glyph>
<glyph name="uni2070" format="2">
	<advance width="648"/>
	<unicode hex="2070"/>
	<outline>
		<contour>
			<point x="324" y="798" type="curve"/>
			<point x="463" y="798"/>
			<point x="576" y="941"/>
			<point x="576" y="1133" type="curve"/>
			<point x="576" y="1324"/>
			<point x="463" y="1468"/>
			<point x="324" y="1468" type="curve"/>
			<point x="185" y="1468"/>
			<point x="72" y="1324"/>
			<point x="72" y="1133" type="curve"/>
			<point x="72" y="941"/>
			<point x="185" y="798"/>
		</contour>
		<contour>
			<point x="324" y="902" type="curve"/>
			<point x="237" y="902"/>
			<point x="180" y="1019"/>
			<point x="180" y="1133" type="curve"/>
			<point x="180" y="1240"/>
			<point x="233" y="1365"/>
			<point x="324" y="1365" type="curve"/>
			<point x="410" y="1365"/>
			<point x="468" y="1247"/>
			<point x="468" y="1133" type="curve"/>
			<point x="468" y="1029"/>
			<point x="413" y="902"/>
		</contour>
	</outline>
</glyph>
<glyph name="uni2074" format="2">
	<advance width="682.25"/>
	<unicode hex="2074"/>
	<outline>
		<contour>
			<point x="361" y="818" type="line"/>
			<point x="469" y="818" type="line"/>
			<point x="469" y="937" type="line"/>
			<point x="538" y="937" type="line"/>
			<point x="538" y="1045" type="line"/>
			<point x="469" y="1045" type="line"/>
			<point x="469" y="1449" type="line"/>
			<point x="338" y="1449" type="line"/>
			<point x="96" y="1067" type="line"/>
			<point x="96" y="937" type="line"/>
			<point x="361" y="937" type="line"/>
		</contour>
		<contour>
			<point x="205" y="1045" type="line"/>
			<point x="367" y="1301" type="line"/>
			<point x="367" y="1045" type="line"/>
		</contour>
	</outline>
</glyph>
<glyph name="uni2075" format="2">
	<advance width="683.5"/>
	<unicode hex="2075"/>
	<outline>
		<contour>
			<point x="311" y="798" type="curve" smooth="yes"/>
			<point x="437" y="798"/>
			<point x="540" y="888"/>
			<point x="540" y="1013" type="curve" smooth="yes"/>
			<point x="540" y="1166"/>
			<point x="416" y="1252"/>
			<point x="244" y="1235" type="curve"/>
			<point x="251" y="1350" type="line"/>
			<point x="499" y="1350" type="line"/>
			<point x="499" y="1449" type="line"/>
			<point x="153" y="1449" type="line"/>
			<point x="123" y="1107" type="line"/>
			<point x="198" y="1127"/>
			<point x="254" y="1133"/>
			<point x="311" y="1132" type="curve" smooth="yes"/>
			<point x="377" y="1130"/>
			<point x="432" y="1079"/>
			<point x="432" y="1013" type="curve" smooth="yes"/>
			<point x="432" y="949"/>
			<point x="377" y="902"/>
			<point x="311" y="902" type="curve" smooth="yes"/>
			<point x="246" y="902"/>
			<point x="192" y="949"/>
			<point x="192" y="1013" type="curve"/>
			<point x="84" y="1013" type="line"/>
			<point x="84" y="888"/>
			<point x="186" y="798"/>
		</contour>
	</outline>
</glyph>
<glyph name="uni2079" format="2">
	<advance width="658.625"/>
	<unicode hex="2079"/>
	<outline>
		<contour>
			<point x="201" y="818" type="line"/>
			<point x="325" y="818" type="line"/>
			<point x="504" y="1126" type="line"/>
			<point x="512" y="1142"/>
			<point x="517" y="1158"/>
			<point x="519" y="1175" type="curve" smooth="yes"/>
			<point x="576" y="1318"/>
			<point x="467" y="1468"/>
			<point x="306" y="1468" type="curve" smooth="yes"/>
			<point x="208" y="1468"/>
			<point x="119" y="1415"/>
			<point x="92" y="1319" type="curve" smooth="yes"/>
			<point x="28" y="1172"/>
			<point x="153" y="1000"/>
			<point x="318" y="1022" type="curve"/>
		</contour>
		<contour>
			<point x="306" y="1122" type="curve" smooth="yes"/>
			<point x="256" y="1122"/>
			<point x="197" y="1155"/>
			<point x="184" y="1221" type="curve" smooth="yes"/>
			<point x="169" y="1297"/>
			<point x="225" y="1365"/>
			<point x="306" y="1365" type="curve" smooth="yes"/>
			<point x="358" y="1365"/>
			<point x="414" y="1334"/>
			<point x="428" y="1274" type="curve" smooth="yes"/>
			<point x="443" y="1194"/>
			<point x="384" y="1122"/>
		</contour>
	</outline>
</glyph>
<glyph name="uni2082" format="2">
	<advance width="691.375"/>
	<unicode hex="2082"/>
	<outline>
		<contour>
			<point x="96" y="0" type="line"/>
			<point x="543" y="0" type="line"/>
			<point x="543" y="108" type="line"/>
			<point x="287" y="108" type="line"/>
			<point x="397" y="189"/>
			<point x="547" y="322"/>
			<point x="547" y="436" type="curve"/>
			<point x="547" y="560"/>
			<point x="447" y="655"/>
			<point x="323" y="655" type="curve"/>
			<point x="197" y="655"/>
			<point x="96" y="560"/>
			<point x="96" y="436" type="curve"/>
			<point x="204" y="436" type="line"/>
			<point x="204" y="502"/>
			<point x="257" y="547"/>
			<point x="323" y="547" type="curve"/>
			<point x="388" y="547"/>
			<point x="439" y="502"/>
			<point x="439" y="436" type="curve"/>
			<point x="412" y="312"/>
			<point x="200" y="172"/>
			<point x="96" y="101" type="curve"/>
		</contour>
	</outline>
</glyph>
<glyph name="uni2083" format="2">
	<advance width="558"/>
	<unicode hex="2083"/>
	<outline>
		<contour>
			<point x="280" y="-31" type="curve" smooth="yes"/>
			<point x="393" y="-31"/>
			<point x="486" y="55"/>
			<point x="486" y="170" type="curve" smooth="yes"/>
			<point x="486" y="240"/>
			<point x="460" y="283"/>
			<point x="409" y="327" type="curve"/>
			<point x="442" y="352"/>
			<point x="468" y="406"/>
			<point x="468" y="462" type="curve" smooth="yes"/>
			<point x="468" y="567"/>
			<point x="382" y="646"/>
			<point x="275" y="646" type="curve" smooth="yes"/>
			<point x="169" y="646"/>
			<point x="83" y="567"/>
			<point x="83" y="462" type="curve"/>
			<point x="191" y="462" type="line"/>
			<point x="191" y="507"/>
			<point x="230" y="538"/>
			<point x="275" y="538" type="curve" smooth="yes"/>
			<point x="321" y="538"/>
			<point x="360" y="507"/>
			<point x="360" y="462" type="curve" smooth="yes"/>
			<point x="360" y="406"/>
			<point x="320" y="365"/>
			<point x="235" y="365" type="curve"/>
			<point x="235" y="280" type="line"/>
			<point x="327" y="280"/>
			<point x="378" y="233"/>
			<point x="378" y="170" type="curve" smooth="yes"/>
			<point x="378" y="114"/>
			<point x="335" y="77"/>
			<point x="280" y="77" type="curve" smooth="yes"/>
			<point x="223" y="77"/>
			<point x="180" y="114"/>
			<point x="180" y="170" type="curve"/>
			<point x="72" y="170" type="line"/>
			<point x="72" y="55"/>
			<point x="166" y="-31"/>
		</contour>
	</outline>
</glyph>
<glyph name="uni2087" format="2">
	<advance width="639.75"/>
	<unicode hex="2087"/>
	<outline>
		<contour>
			<point x="141" y="0" type="line"/>
			<point x="266" y="0" type="line"/>
			<point x="568" y="525" type="line"/>
			<point x="568" y="631" type="line"/>
			<point x="120" y="631" type="line"/>
			<point x="120" y="523" type="line"/>
			<point x="443" y="523" type="line"/>
		</contour>
	</outline>
</glyph>
<glyph name="uni2088" format="2">
	<advance width="609.125"/>
	<unicode hex="2088"/>
	<outline>
		<contour>
			<point x="303" y="-31" type="curve" smooth="yes"/>
			<point x="420" y="-31"/>
			<point x="513" y="53"/>
			<point x="513" y="168" type="curve" smooth="yes"/>
			<point x="513" y="232"/>
			<point x="484" y="289"/>
			<point x="439" y="325" type="curve"/>
			<point x="475" y="359"/>
			<point x="498" y="408"/>
			<point x="498" y="460" type="curve" smooth="yes"/>
			<point x="498" y="569"/>
			<point x="411" y="647"/>
			<point x="303" y="647" type="curve" smooth="yes"/>
			<point x="197" y="647"/>
			<point x="111" y="569"/>
			<point x="111" y="460" type="curve" smooth="yes"/>
			<point x="111" y="408"/>
			<point x="135" y="359"/>
			<point x="170" y="325" type="curve"/>
			<point x="126" y="289"/>
			<point x="96" y="232"/>
			<point x="96" y="168" type="curve" smooth="yes"/>
			<point x="96" y="53"/>
			<point x="190" y="-31"/>
		</contour>
		<contour>
			<point x="303" y="76" type="curve" smooth="yes"/>
			<point x="249" y="76"/>
			<point x="204" y="113"/>
			<point x="204" y="168" type="curve" smooth="yes"/>
			<point x="204" y="223"/>
			<point x="249" y="268"/>
			<point x="303" y="268" type="curve" smooth="yes"/>
			<point x="360" y="268"/>
			<point x="405" y="223"/>
			<point x="405" y="168" type="curve" smooth="yes"/>
			<point x="405" y="113"/>
			<point x="360" y="76"/>
		</contour>
		<contour>
			<point x="303" y="376" type="curve" smooth="yes"/>
			<point x="258" y="376"/>
			<point x="219" y="415"/>
			<point x="219" y="460" type="curve" smooth="yes"/>
			<point x="219" y="508"/>
			<point x="258" y="539"/>
			<point x="303" y="539" type="curve" smooth="yes"/>
			<point x="352" y="539"/>
			<point x="390" y="508"/>
			<point x="390" y="460" type="curve" smooth="yes"/>
			<point x="390" y="415"/>
			<point x="352" y="376"/>
		</contour>
	</outline>
</glyph>
<glyph name="Euro" format="2">
	<advance width="1162.25"/>
	<unicode hex="20AC"/>
	<outline>
		<contour>
			<point x="1082" y="-15" type="curve"/>
			<point x="1082" y="139" type="line"/>
			<point x="806" y="76"/>
			<point x="546" y="241"/>
			<point x="458" y="511" type="curve"/>
			<point x="783" y="511" type="line"/>
			<point x="783" y="624" type="line"/>
			<point x="429" y="624" type="line"/>
			<point x="428" y="775" type="line"/>
			<point x="783" y="775" type="line"/>
			<point x="783" y="888" type="line"/>
			<point x="458" y="888" type="line"/>
			<point x="543" y="1153"/>
			<point x="799" y="1327"/>
			<point x="1082" y="1262" type="curve"/>
			<point x="1082" y="1416" type="line"/>
			<point x="726" y="1482"/>
			<point x="388" y="1249"/>
			<point x="297" y="888" type="curve"/>
			<point x="80" y="888" type="line"/>
			<point x="80" y="775" type="line"/>
			<point x="277" y="775" type="line"/>
			<point x="277" y="624" type="line"/>
			<point x="80" y="624" type="line"/>
			<point x="80" y="511" type="line"/>
			<point x="297" y="511" type="line"/>
			<point x="387" y="156"/>
			<point x="720" y="-82"/>
		</contour>
	</outline>
</glyph>
<glyph name="arrowup" format="2">
	<advance width="1157.75"/>
	<unicode hex="2191"/>
	<outline>
		<contour>
			<point x="505" y="142" type="line"/>
			<point x="655" y="142" type="line"/>
			<point x="655" y="1071" type="line"/>
			<point x="972" y="753" type="line"/>
			<point x="1078" y="860" type="line"/>
			<point x="580" y="1358" type="line"/>
			<point x="80" y="860" type="line"/>
			<point x="187" y="753" type="line"/>
			<point x="505" y="1071" type="line"/>
		</contour>
	</outline>
</glyph>
<glyph name="arrowright" format="2">
	<advance width="1374.25"/>
	<unicode hex="2192"/>
	<outline>
		<contour>
			<point x="795" y="252" type="line"/>
			<point x="1294" y="750" type="line"/>
			<point x="795" y="1248" type="line"/>
			<point x="689" y="1143" type="line"/>
			<point x="1006" y="825" type="line"/>
			<point x="80" y="825" type="line"/>
			<point x="80" y="675" type="line"/>
			<point x="1006" y="675" type="line"/>
			<point x="689" y="358" type="line"/>
		</contour>
	</outline>
</glyph>
<glyph name="arrowdown" format="2">
	<advance width="1157"/>
	<unicode hex="2193"/>
	<outline>
		<contour>
			<point x="578" y="144" type="line"/>
			<point x="1077" y="642" type="line"/>
			<point x="971" y="748" type="line"/>
			<point x="653" y="431" type="line"/>
			<point x="653" y="1357" type="line"/>
			<point x="503" y="1357" type="line"/>
			<point x="503" y="431" type="line"/>
			<point x="186" y="748" type="line"/>
			<point x="80" y="642" type="line"/>
		</contour>
	</outline>
</glyph>
<glyph name="arrowboth" format="2">
	<advance width="1699.25"/>
	<unicode hex="2194"/>
	<outline>
		<contour>
			<point x="578" y="252" type="line"/>
			<point x="684" y="358" type="line"/>
			<point x="367" y="675" type="line"/>
			<point x="1331" y="675" type="line"/>
			<point x="1014" y="358" type="line"/>
			<point x="1120" y="252" type="line"/>
			<point x="1619" y="750" type="line"/>
			<point x="1120" y="1248" type="line"/>
			<point x="1014" y="1143" type="line"/>
			<point x="1331" y="825" type="line"/>
			<point x="367" y="825" type="line"/>
			<point x="684" y="1143" type="line"/>
			<point x="578" y="1248" type="line"/>
			<point x="80" y="750" type="line"/>
		</contour>
	</outline>
</glyph>
<glyph name="arrowupdn" format="2">
	<advance width="1157.75"/>
	<unicode hex="2195"/>
	<outline>
		<contour>
			<point x="578" y="-20" type="line"/>
			<point x="1078" y="479" type="line"/>
			<point x="971" y="586" type="line"/>
			<point x="653" y="267" type="line"/>
			<point x="653" y="1233" type="line"/>
			<point x="971" y="915" type="line"/>
			<point x="1078" y="1022" type="line"/>
			<point x="578" y="1520" type="line"/>
			<point x="80" y="1022" type="line"/>
			<point x="186" y="915" type="line"/>
			<point x="503" y="1233" type="line"/>
			<point x="503" y="267" type="line"/>
			<point x="186" y="586" type="line"/>
			<point x="80" y="479" type="line"/>
		</contour>
	</outline>
</glyph>
<glyph name="uni2196" format="2">
	<advance width="1072"/>
	<unicode hex="2196"/>
	<outline>
		<contour>
			<point x="886" y="295" type="line"/>
			<point x="992" y="400" type="line"/>
			<point x="337" y="1055" type="line"/>
			<point x="785" y="1055" type="line"/>
			<point x="785" y="1205" type="line"/>
			<point x="80" y="1205" type="line"/>
			<point x="80" y="500" type="line"/>
			<point x="230" y="500" type="line"/>
			<point x="230" y="950" type="line"/>
		</contour>
	</outline>
</glyph>
<glyph name="uni2197" format="2">
	<advance width="1070.75"/>
	<unicode hex="2197"/>
	<outline>
		<contour>
			<point x="186" y="295" type="line"/>
			<point x="841" y="949" type="line"/>
			<point x="841" y="500" type="line"/>
			<point x="991" y="500" type="line"/>
			<point x="991" y="1205" type="line"/>
			<point x="285" y="1205" type="line"/>
			<point x="285" y="1055" type="line"/>
			<point x="735" y="1055" type="line"/>
			<point x="80" y="401" type="line"/>
		</contour>
	</outline>
</glyph>
<glyph name="uni2198" format="2">
	<advance width="1070.75"/>
	<unicode hex="2198"/>
	<outline>
		<contour>
			<point x="286" y="295" type="line"/>
			<point x="991" y="295" type="line"/>
			<point x="991" y="1000" type="line"/>
			<point x="841" y="1000" type="line"/>
			<point x="841" y="551" type="line"/>
			<point x="186" y="1205" type="line"/>
			<point x="80" y="1099" type="line"/>
			<point x="735" y="445" type="line"/>
			<point x="286" y="445" type="line"/>
		</contour>
	</outline>
</glyph>
<glyph name="partialdiff" format="2">
	<advance width="1164.75"/>
	<unicode hex="2202"/>
	<outline>
		<contour>
			<point x="583" y="-26" type="curve"/>
			<point x="879" y="-26"/>
			<point x="1085" y="198"/>
			<point x="1085" y="518" type="curve"/>
			<point x="1082" y="1050"/>
			<point x="775" y="1501"/>
			<point x="352" y="1501" type="curve"/>
			<point x="353" y="1351" type="line"/>
			<point x="642" y="1351"/>
			<point x="816" y="1089"/>
			<point x="877" y="833" type="curve"/>
			<point x="811" y="922"/>
			<point x="704" y="979"/>
			<point x="583" y="979" type="curve"/>
			<point x="306" y="979"/>
			<point x="80" y="754"/>
			<point x="80" y="476" type="curve"/>
			<point x="80" y="199"/>
			<point x="306" y="-26"/>
		</contour>
		<contour>
			<point x="583" y="124" type="curve"/>
			<point x="387" y="124"/>
			<point x="230" y="285"/>
			<point x="230" y="476" type="curve"/>
			<point x="230" y="667"/>
			<point x="385" y="829"/>
			<point x="583" y="829" type="curve"/>
			<point x="779" y="829"/>
			<point x="936" y="669"/>
			<point x="936" y="476" type="curve"/>
			<point x="936" y="287"/>
			<point x="782" y="124"/>
		</contour>
	</outline>
</glyph>
<glyph name="product" format="2">
	<advance width="1280"/>
	<unicode hex="220F"/>
	<outline>
		<contour>
			<point x="80" y="1400" type="line"/>
			<point x="80" y="1250" type="line"/>
			<point x="1200" y="1250" type="line"/>
			<point x="1200" y="1400" type="line"/>
		</contour>
		<contour>
			<point x="265" y="1300" type="line"/>
			<point x="265" y="0" type="line"/>
			<point x="415" y="0" type="line"/>
			<point x="415" y="1300" type="line"/>
		</contour>
		<contour>
			<point x="865" y="1300" type="line"/>
			<point x="865" y="0" type="line"/>
			<point x="1015" y="0" type="line"/>
			<point x="1015" y="1300" type="line"/>
		</contour>
	</outline>
</glyph>
<glyph name="summation" format="2">
	<advance width="952.25"/>
	<unicode hex="2211"/>
	<outline>
		<contour>
			<point x="80" y="0" type="line"/>
			<point x="892" y="0" type="line"/>
			<point x="892" y="150" type="line"/>
			<point x="249" y="150" type="line"/>
			<point x="529" y="698" type="line"/>
			<point x="249" y="1246" type="line"/>
			<point x="892" y="1246" type="line"/>
			<point x="892" y="1396" type="line"/>
			<point x="80" y="1396" type="line"/>
			<point x="80" y="1246" type="line"/>
			<point x="360" y="698" type="line"/>
			<point x="80" y="150" type="line"/>
		</contour>
	</outline>
</glyph>
<glyph name="minus" format="2">
	<advance width="1160"/>
	<unicode hex="2212"/>
	<outline>
		<contour>
			<point x="80" y="525" type="line"/>
			<point x="1080" y="525" type="line"/>
			<point x="1080" y="675" type="line"/>
			<point x="80" y="675" type="line"/>
		</contour>
	</outline>
</glyph>
<glyph name="infinity" format="2">
	<advance width="1476.75"/>
	<unicode hex="221E"/>
	<outline>
		<contour>
			<point x="391" y="298" type="curve" smooth="yes"/>
			<point x="540" y="294"/>
			<point x="616" y="362"/>
			<point x="739" y="510" type="curve"/>
			<point x="865" y="358"/>
			<point x="939" y="298"/>
			<point x="1088" y="298" type="curve" smooth="yes"/>
			<point x="1268" y="309"/>
			<point x="1397" y="449"/>
			<point x="1397" y="625" type="curve" smooth="yes"/>
			<point x="1397" y="800"/>
			<point x="1278" y="944"/>
			<point x="1070" y="953" type="curve" smooth="yes"/>
			<point x="940" y="953"/>
			<point x="854" y="881"/>
			<point x="739" y="740" type="curve"/>
			<point x="620" y="884"/>
			<point x="543" y="953"/>
			<point x="391" y="953" type="curve" smooth="yes"/>
			<point x="210" y="944"/>
			<point x="80" y="801"/>
			<point x="80" y="625" type="curve" smooth="yes"/>
			<point x="80" y="458"/>
			<point x="202" y="318"/>
		</contour>
		<contour>
			<point x="392" y="438" type="curve" smooth="yes"/>
			<point x="295" y="446"/>
			<point x="219" y="523"/>
			<point x="219" y="625" type="curve" smooth="yes"/>
			<point x="219" y="720"/>
			<point x="289" y="803"/>
			<point x="392" y="812" type="curve" smooth="yes"/>
			<point x="502" y="814"/>
			<point x="547" y="754"/>
			<point x="653" y="625" type="curve"/>
			<point x="553" y="502"/>
			<point x="504" y="438"/>
		</contour>
		<contour>
			<point x="1086" y="438" type="curve" smooth="yes"/>
			<point x="983" y="437"/>
			<point x="942" y="484"/>
			<point x="825" y="625" type="curve"/>
			<point x="927" y="748"/>
			<point x="976" y="813"/>
			<point x="1076" y="813" type="curve" smooth="yes"/>
			<point x="1189" y="804"/>
			<point x="1259" y="725"/>
			<point x="1259" y="625" type="curve" smooth="yes"/>
			<point x="1259" y="529"/>
			<point x="1187" y="447"/>
		</contour>
	</outline>
</glyph>
<glyph name="integral" format="2">
	<advance width="896.5"/>
	<unicode hex="222B"/>
	<outline>
		<contour>
			<point x="275" y="-26" type="curve" smooth="yes"/>
			<point x="374" y="-25"/>
			<point x="451" y="24"/>
			<point x="471" y="135" type="curve"/>
			<point x="571" y="1232" type="line"/>
			<point x="574" y="1269"/>
			<point x="604" y="1301"/>
			<point x="643" y="1299" type="curve"/>
			<point x="682" y="1300"/>
			<point x="715" y="1272"/>
			<point x="718" y="1222" type="curve"/>
			<point x="816" y="1212" type="line"/>
			<point x="826" y="1323"/>
			<point x="739" y="1422"/>
			<point x="626" y="1426" type="curve" smooth="yes"/>
			<point x="532" y="1429"/>
			<point x="437" y="1363"/>
			<point x="424" y="1266" type="curve"/>
			<point x="324" y="165" type="line"/>
			<point x="318" y="124"/>
			<point x="286" y="98"/>
			<point x="246" y="100" type="curve" smooth="yes"/>
			<point x="203" y="105"/>
			<point x="186" y="137"/>
			<point x="187" y="178" type="curve"/>
			<point x="81" y="187" type="line"/>
			<point x="71" y="68"/>
			<point x="161" y="-25"/>
		</contour>
	</outline>
</glyph>
<glyph name="lessequal" format="2">
	<advance width="1160"/>
	<unicode hex="2264"/>
	<outline>
		<contour>
			<point x="1080" y="341" type="line"/>
			<point x="1080" y="496" type="line"/>
			<point x="194" y="749" type="line"/>
			<point x="1080" y="1001" type="line"/>
			<point x="1080" y="1158" type="line"/>
			<point x="80" y="872" type="line"/>
			<point x="80" y="625" type="line"/>
		</contour>
		<contour>
			<point x="80" y="0" type="line"/>
			<point x="1080" y="0" type="line"/>
			<point x="1080" y="150" type="line"/>
			<point x="80" y="150" type="line"/>
		</contour>
	</outline>
</glyph>
<glyph name="greaterequal" format="2">
	<advance width="1160"/>
	<unicode hex="2265"/>
	<outline>
		<contour>
			<point x="80" y="350" type="line"/>
			<point x="1080" y="629" type="line"/>
			<point x="1080" y="876" type="line"/>
			<point x="80" y="1158" type="line"/>
			<point x="80" y="1001" type="line"/>
			<point x="966" y="754" type="line"/>
			<point x="80" y="505" type="line"/>
		</contour>
		<contour>
			<point x="80" y="0" type="line"/>
			<point x="1080" y="0" type="line"/>
			<point x="1080" y="150" type="line"/>
			<point x="80" y="150" type="line"/>
		</contour>
	</outline>
</glyph>
<glyph name="lozenge" format="2">
	<advance width="885"/>
	<unicode hex="25CA"/>
	<outline>
		<contour>
			<point x="328" y="0" type="line"/>
			<point x="557" y="0" type="line"/>
			<point x="825" y="702" type="line"/>
			<point x="559" y="1400" type="line"/>
			<point x="326" y="1400" type="line"/>
			<point x="60" y="702" type="line"/>
		</contour>
		<contour>
			<point x="443" y="134" type="line"/>
			<point x="219" y="702" type="line"/>
			<point x="443" y="1270" type="line"/>
			<point x="669" y="702" type="line"/>
		</contour>
	</outline>
</glyph>
